<?xml version="1.0" encoding="UTF-8"?>
<svg width="186px" height="150px" viewBox="0 0 186 150" version="1.1" xmlns="http://www.w3.org/2000/svg" xmlns:xlink="http://www.w3.org/1999/xlink">
    <!-- Generator: Sketch 50.2 (55047) - http://www.bohemiancoding.com/sketch -->
    <title>Notification@2x</title>
    <desc>Created with Sketch.</desc>
    <defs></defs>
    <g id="Page-1" stroke="none" stroke-width="1" fill="none" fill-rule="evenodd">
        <g id="00.-Home" transform="translate(-923.000000, -1296.000000)">
            <g id="Notification" transform="translate(923.000000, 1296.000000)">
                <path d="M168.199219,75 C168.199219,116.421377 134.531039,150 93,150 C51.4685977,150 17.8007812,116.421377 17.8007812,75 C17.8007812,33.5786232 51.4685977,0 93,0 C134.531039,0 168.199219,33.5786232 168.199219,75" id="Fill-1" fill="#CC9842"></path>
                <path d="M168.876193,95.9886775 C168.330908,95.9886775 167.785986,95.7814312 167.370029,95.3665761 C166.538115,94.5368659 166.538115,93.1919384 167.370029,92.3625906 C176.584658,83.1727355 181.658971,70.9542572 181.658971,57.9578804 C181.658971,44.9618659 176.584658,32.7433877 167.370029,23.5535326 C166.538115,22.7241848 166.538115,21.3792572 167.370029,20.5495471 C168.20158,19.7201993 169.550443,19.7201993 170.381994,20.5495471 C180.401291,30.5415761 185.918443,43.8270833 185.918443,57.9578804 C185.918443,72.0890399 180.401291,85.3745471 170.381994,95.3665761 C169.9664,95.7810688 169.421115,95.9886775 168.876193,95.9886775" id="Fill-3" fill="#194649"></path>
                <path d="M157.977438,84.8904891 C157.432516,84.8904891 156.887231,84.6828804 156.471637,84.2683877 C155.639723,83.4386775 155.639723,82.09375 156.471637,81.2644022 C162.792731,74.9600543 166.273692,66.5781703 166.273692,57.6625906 C166.273692,48.7470109 162.792731,40.3651268 156.471637,34.060779 C155.639723,33.2310688 155.639723,31.8861413 156.471274,31.0567935 C157.303551,30.2274457 158.652051,30.2274457 159.483602,31.0567935 C166.609364,38.1633152 170.533528,47.6122283 170.533528,57.6625906 C170.533528,67.7129529 166.609364,77.1615036 159.483602,84.2683877 C159.067645,84.6828804 158.52236,84.8904891 157.977438,84.8904891" id="Fill-5" fill="#194649"></path>
                <path d="M147.079,74.1419384 C146.533715,74.1419384 145.988793,73.934692 145.572836,73.519837 C144.741286,72.6901268 144.741286,71.3451993 145.5732,70.5158514 C148.950625,67.1473732 150.810989,62.6683877 150.810989,57.9042572 C150.810989,53.1404891 148.950625,48.6615036 145.5732,45.292663 C144.741286,44.4633152 144.741286,43.1183877 145.5732,42.2886775 C146.40475,41.4593297 147.753614,41.4593297 148.585165,42.2886775 C152.767258,46.459692 155.070825,52.0057065 155.070825,57.9042572 C155.070825,63.8031703 152.767258,69.3488225 148.585165,73.519837 C148.169208,73.9343297 147.623922,74.1419384 147.079,74.1419384" id="Fill-7" fill="#194649"></path>
                <path d="M52.6605234,141.347101 C47.4525234,141.347101 43.2304688,137.136232 43.2304688,131.942029 L43.2304688,86.2318841 L62.0902148,86.2318841 L62.0902148,131.942029 C62.0902148,137.136232 57.8685234,141.347101 52.6605234,141.347101" id="Fill-9" fill="#FFFFFF"></path>
                <path d="M55.21875,140.972101 C59.1440039,139.834783 62.0139258,136.223913 62.0139258,131.942029 L62.0139258,86.2318841 L55.21875,86.2318841 L55.21875,140.972101 Z" id="Fill-11" fill="#39C4BA"></path>
                <path d="M45.3102539,88.3061594 L45.3102539,131.892391 C45.3102539,135.906884 48.5852344,139.173188 52.6107539,139.173188 C56.6359102,139.173188 59.9105273,135.906884 59.9105273,131.892391 L59.9105273,88.3061594 L45.3102539,88.3061594 Z M52.6107539,143.421377 C46.2366211,143.421377 41.0507813,138.249275 41.0507813,131.892391 L41.0507813,86.1818841 C41.0507813,85.009058 42.0043945,84.057971 43.1806992,84.057971 L62.0404453,84.057971 C63.2163867,84.057971 64.17,85.009058 64.17,86.1818841 L64.17,131.892391 C64.17,138.249275 58.9848867,143.421377 52.6107539,143.421377 Z" id="Fill-13" fill="#194649"></path>
                <path d="M68.369168,86.1384058 L36.598043,86.1384058 C33.2387812,86.1384058 30.515625,83.4224638 30.515625,80.0717391 L30.515625,35.4144928 C30.515625,32.0637681 33.2387812,29.3478261 36.598043,29.3478261 L68.369168,29.3478261 C71.7284297,29.3478261 74.4519492,32.0637681 74.4519492,35.4144928 L74.4519492,80.0717391 C74.4519492,83.4224638 71.7284297,86.1384058 68.369168,86.1384058" id="Fill-15" fill="#CC9842"></path>
                <path d="M68.5769648,29.3478261 L62.1210938,29.3478261 L62.1210938,86.1384058 L68.5769648,86.1384058 C71.9362266,86.1384058 74.6597461,83.4224638 74.6597461,80.0717391 L74.6597461,35.4144928 C74.6597461,32.0637681 71.9362266,29.3478261 68.5769648,29.3478261" id="Fill-17" fill="#C48A37"></path>
                <polygon id="Fill-19" fill="#39C4BA" points="74.4726562 77.4851449 123.80952 96.3108696 123.80952 19.5652174 74.4726562 38.390942"></polygon>
                <polygon id="Fill-21" fill="#209995" points="111.890625 91.6858696 124.011504 96.3108696 124.011504 19.5652174 111.890625 24.1902174"></polygon>
                <path d="M131.191395,106.872826 L131.191758,106.872826 C135.229992,106.872826 138.504246,103.607609 138.504246,99.5797101 L138.504246,15.9887681 C138.504246,11.9608696 135.229992,8.69565217 131.191758,8.69565217 L131.191395,8.69565217 C127.152797,8.69565217 123.878906,11.9608696 123.878906,15.9887681 L123.878906,99.5797101 C123.878906,103.607609 127.152797,106.872826 131.191395,106.872826" id="Fill-23" fill="#209995"></path>
                <path d="M132.597656,8.69565217 L132.597656,106.661594 C136.047738,106.076087 138.674988,103.081884 138.674988,99.4742754 L138.674988,15.8833333 C138.674988,12.2753623 136.047738,9.28152174 132.597656,8.69565217" id="Fill-25" fill="#155C5E"></path>
                <path d="M22.084957,77.7481884 L30.7103437,77.7481884 L30.7103437,38.0434783 L22.084957,38.0434783 C11.0917031,38.0434783 2.1796875,46.9315217 2.1796875,57.8960145 C2.1796875,68.8601449 11.0917031,77.7481884 22.084957,77.7481884" id="Fill-27" fill="#155C5E"></path>
                <path d="M36.5486367,31.4224638 C34.3689492,31.4224638 32.5954102,33.190942 32.5954102,35.3644928 L32.5954102,80.0224638 C32.5954102,82.1960145 34.3689492,83.9648551 36.5486367,83.9648551 L68.3197617,83.9648551 C70.4994492,83.9648551 72.272625,82.1960145 72.272625,80.0224638 L72.272625,35.3644928 C72.272625,33.190942 70.4994492,31.4224638 68.3197617,31.4224638 L36.5486367,31.4224638 Z M68.3197617,88.2130435 L36.5486367,88.2130435 C32.0199727,88.2130435 28.3359375,84.5387681 28.3359375,80.0224638 L28.3359375,35.3644928 C28.3359375,30.8485507 32.0199727,27.173913 36.5486367,27.173913 L68.3197617,27.173913 C72.8476992,27.173913 76.5320977,30.8485507 76.5320977,35.3644928 L76.5320977,80.0224638 C76.5320977,84.5387681 72.8476992,88.2130435 68.3197617,88.2130435 Z" id="Fill-29" fill="#194649"></path>
                <path d="M131.141262,10.7699275 C128.283691,10.7699275 125.958691,13.0887681 125.958691,15.9391304 L125.958691,99.5300725 C125.958691,102.380072 128.283691,104.699275 131.141262,104.699275 C133.999195,104.699275 136.324559,102.380072 136.324559,99.5300725 L136.324559,15.9391304 C136.324559,13.0887681 133.999195,10.7699275 131.141262,10.7699275 M131.141262,108.947464 C125.934715,108.947464 121.699219,104.722826 121.699219,99.5300725 L121.699219,15.9391304 C121.699219,10.7463768 125.934715,6.52173913 131.141262,6.52173913 C136.347809,6.52173913 140.583668,10.7463768 140.583668,15.9391304 L140.583668,99.5300725 C140.583668,104.722826 136.347809,108.947464 131.141262,108.947464" id="Fill-31" fill="#194649"></path>
                <path d="M76.5524414,75.9737943 L121.629832,93.1741566 L121.629832,22.6024175 L76.5524414,39.8024175 L76.5524414,75.9737943 Z M123.759387,98.3850262 C123.502547,98.3850262 123.244617,98.3390117 122.999039,98.2451711 L73.6618125,79.4194465 C72.8371641,79.1045914 72.2929688,78.315461 72.2929688,77.4353885 L72.2929688,38.3411856 C72.2929688,37.4607508 72.8371641,36.6716204 73.6618125,36.3571276 L122.999039,17.531403 C123.651855,17.2821276 124.38968,17.3687218 124.967297,17.765461 C125.544187,18.1618378 125.889668,18.8161856 125.889668,19.515461 L125.889668,96.2611131 C125.889668,96.9603885 125.544187,97.6147363 124.967297,98.0111131 C124.606559,98.2582146 124.184789,98.3850262 123.759387,98.3850262 Z" id="Fill-33" fill="#194649"></path>
                <path d="M22.0348242,40.1177536 C12.2338594,40.1177536 4.25947266,48.0706522 4.25947266,57.8460145 C4.25947266,67.6213768 12.2338594,75.5742754 22.0348242,75.5742754 L28.530293,75.5742754 L28.530293,40.1177536 L22.0348242,40.1177536 Z M30.6598477,79.8224638 L22.0348242,79.8224638 C9.88488281,79.8224638 0,69.9637681 0,57.8460145 C0,45.7278986 9.88488281,35.8695652 22.0348242,35.8695652 L30.6598477,35.8695652 C31.8361523,35.8695652 32.7897656,36.8206522 32.7897656,37.9934783 L32.7897656,77.6985507 C32.7897656,78.8717391 31.8361523,79.8224638 30.6598477,79.8224638 Z" id="Fill-35" fill="#194649"></path>
            </g>
        </g>
    </g>
</svg>