<?xml version="1.0" encoding="UTF-8"?>
<svg width="343px" height="343px" viewBox="0 0 343 343" version="1.1" xmlns="http://www.w3.org/2000/svg" xmlns:xlink="http://www.w3.org/1999/xlink">
    <!-- Generator: Sketch 50.2 (55047) - http://www.bohemiancoding.com/sketch -->
    <title>graphic copy 4@2x</title>
    <desc>Created with Sketch.</desc>
    <defs>
        <polygon id="path-1" points="3.30900814 2.57929942 278.423116 2.57929942 278.423116 306.650769 3.30900814 306.650769"></polygon>
    </defs>
    <g id="Page-1" stroke="none" stroke-width="1" fill="none" fill-rule="evenodd">
        <g id="graphic">
            <g id="Shape">
                <path d="M183.601331,179.569676 C185.828587,179.569676 187.64025,181.381338 187.64025,183.604559 C187.64025,185.831815 185.828587,187.643478 183.601331,187.643478 C181.370041,187.643478 179.562413,185.831815 179.562413,183.604559 C179.562413,181.381338 181.370041,179.569676 183.601331,179.569676 M183.601331,195.71728 C190.279064,195.71728 195.714052,190.282292 195.714052,183.604559 C195.714052,178.351141 192.32475,173.912769 187.64025,172.242327 L187.64025,139.200664 L199.748936,139.200664 C201.976192,139.200664 203.779785,141.012327 203.779785,143.239583 L203.779785,199.752164 C203.779785,201.97942 201.976192,203.791083 199.744901,203.791083 L175.527529,203.791083 C173.292203,203.791083 171.48861,205.59871 171.48861,207.825966 C171.48861,210.057257 173.292203,211.864885 175.527529,211.864885 L199.744901,211.864885 C206.422634,211.864885 211.853587,206.429897 211.853587,199.752164 L211.853587,143.239583 C211.853587,136.56185 206.422634,131.126862 199.748936,131.126862 L183.601331,131.126862 C181.366006,131.126862 179.562413,132.93449 179.562413,135.16578 L179.562413,172.242327 C174.877913,173.912769 171.48861,178.351141 171.48861,183.604559 C171.48861,190.282292 176.927634,195.71728 183.601331,195.71728" id="Fill-1" fill="#CC9842"></path>
                <path d="M159.380328,155.348672 C161.611619,155.348672 163.419247,157.160335 163.419247,159.383556 C163.419247,161.610812 161.611619,163.422474 159.380328,163.422474 C157.153072,163.422474 155.345444,161.610812 155.345444,159.383556 C155.345444,157.160335 157.153072,155.348672 159.380328,155.348672 M143.236758,211.865288 L159.380328,211.865288 C161.615653,211.865288 163.419247,210.05766 163.419247,207.82637 L163.419247,170.753858 C168.103747,169.079381 171.489014,164.641009 171.489014,159.383556 C171.489014,152.709858 166.05806,147.27487 159.380328,147.27487 C152.702595,147.27487 147.271642,152.709858 147.271642,159.383556 C147.271642,164.641009 150.656909,169.079381 155.345444,170.753858 L155.345444,203.791486 L143.236758,203.791486 C141.009502,203.791486 139.201874,201.979823 139.201874,199.752567 L139.201874,143.239986 C139.201874,141.01273 141.009502,139.201067 143.236758,139.201067 L167.45413,139.201067 C169.689456,139.201067 171.489014,137.39344 171.489014,135.166184 C171.489014,132.934893 169.689456,131.127265 167.45413,131.127265 L143.236758,131.127265 C136.56306,131.127265 131.128072,136.562253 131.128072,143.239986 L131.128072,199.752567 C131.128072,206.4303 136.56306,211.865288 143.236758,211.865288" id="Fill-3" fill="#CC9842"></path>
                <path d="M122.881173,127.309055 C125.318243,127.309055 127.303406,125.331962 127.303406,122.886822 C127.303406,120.449752 125.318243,118.472659 122.881173,118.472659 C120.444103,118.472659 118.462976,120.449752 118.462976,122.886822 C118.462976,125.331962 120.444103,127.309055 122.881173,127.309055" id="Fill-5" fill="#CC9842"></path>
                <path d="M220.092416,127.309055 C222.533521,127.309055 224.514649,125.331962 224.514649,122.886822 C224.514649,120.449752 222.533521,118.472659 220.092416,118.472659 C217.655347,118.472659 215.674219,120.449752 215.674219,122.886822 C215.674219,125.331962 217.655347,127.309055 220.092416,127.309055" id="Fill-7" fill="#CC9842"></path>
                <path d="M122.881173,224.520701 C125.318243,224.520701 127.303406,222.543608 127.303406,220.098469 C127.303406,217.661399 125.318243,215.684306 122.881173,215.684306 C120.444103,215.684306 118.462976,217.661399 118.462976,220.098469 C118.462976,222.543608 120.444103,224.520701 122.881173,224.520701" id="Fill-9" fill="#CC9842"></path>
                <path d="M220.092416,224.520701 C222.533521,224.520701 224.514649,222.543608 224.514649,220.098469 C224.514649,217.661399 222.533521,215.684306 220.092416,215.684306 C217.655347,215.684306 215.674219,217.661399 215.674219,220.098469 C215.674219,222.543608 217.655347,224.520701 220.092416,224.520701" id="Fill-11" fill="#CC9842"></path>
                <path d="M75.1125884,257.260958 C78.0459488,254.331633 82.7909721,254.331633 85.7202977,257.264993 C88.6455884,260.194319 88.6455884,264.939342 85.7202977,267.868667 C82.7909721,270.793958 78.0459488,270.793958 75.1166233,267.868667 C72.1832628,264.939342 72.1832628,260.194319 75.1125884,257.260958 M70.1052977,272.879993 C74.5396349,277.31433 81.1407047,278.274633 86.5272744,275.789144 C139.339867,318.869598 217.443112,315.859574 266.648519,266.654167 C313.469309,219.837412 318.464495,146.846365 281.726879,94.3807721 L274.924065,101.183586 C308.038356,149.856388 303.091588,216.851598 259.966751,259.976435 C214.497647,305.44554 142.483042,308.483807 93.3986814,269.200179 C96.1948558,263.720807 95.3112163,256.83326 90.7316233,252.253667 C85.0464721,246.568516 75.7904488,246.568516 70.1052977,252.253667 C64.4201465,257.938819 64.4201465,267.190807 70.1052977,272.879993" id="Fill-13" fill="#CC9842"></path>
                <path d="M267.861001,85.727157 C264.931676,88.6564826 260.186652,88.6564826 257.253292,85.727157 C254.328001,82.7978314 254.328001,78.0528081 257.253292,75.1234826 C260.186652,72.194157 264.931676,72.194157 267.861001,75.1234826 C270.790327,78.0528081 270.790327,82.7978314 267.861001,85.727157 M256.506838,67.1707267 C203.69828,24.0741337 125.542583,27.1245058 76.3291058,76.3379826 C29.5083151,123.154738 24.5050593,196.14982 61.2426756,248.615413 L68.0414547,241.820669 C34.927164,193.143831 39.886036,126.144587 83.0108733,83.0157151 C128.475943,37.5466105 200.498617,34.4922035 249.582978,73.7758314 C246.778734,79.2552035 247.662373,86.1548547 252.246001,90.7384826 C257.931152,96.4236337 267.187176,96.4236337 272.872327,90.7384826 C278.557478,85.0492965 278.557478,75.7973081 272.872327,70.112157 C268.450094,65.6899244 261.885338,64.7255872 256.506838,67.1707267" id="Fill-15" fill="#CC9842"></path>
                <path d="M58.7918872,294.796271 C55.8625616,297.725597 51.1175384,297.725597 48.1882128,294.796271 C45.2588872,291.866945 45.2588872,287.121922 48.1882128,284.188562 C51.1175384,281.263271 55.8625616,281.263271 58.7918872,284.188562 C61.7252477,287.121922 61.7252477,291.866945 58.7918872,294.796271 M63.8032128,279.181271 C59.4495733,274.827631 53.0098988,273.81891 47.6757826,276.130899 C-6.18184535,212.492713 -3.16375233,116.829655 56.8309337,56.8349686 C114.428899,-0.758961628 204.923271,-5.86712442 268.371817,41.4862709 L275.102003,34.7560849 C207.90505,-16.2367756 111.435015,-11.1286128 50.1491663,50.157236 C-13.4204267,113.730864 -16.535357,215.151701 40.7035035,282.497945 C37.6773407,288.033806 38.4964221,295.127131 43.1768872,299.803562 C48.8620384,305.492748 58.1180616,305.492748 63.8032128,299.807597 C69.488364,294.11841 69.488364,284.866422 63.8032128,279.181271" id="Fill-17" fill="#CC9842"></path>
                <g id="Group-21" transform="translate(64.558140, 36.340584)">
                    <mask id="mask-2" fill="white">
                        <use xlink:href="#path-1"></use>
                    </mask>
                    <g id="Clip-20"></g>
                    <path d="M230.230869,22.4581628 C227.301543,25.3915233 222.55652,25.3915233 219.627194,22.4581628 C216.697869,19.5288372 216.697869,14.783814 219.627194,11.8544884 C222.55652,8.92516279 227.301543,8.92516279 230.230869,11.8544884 C233.160194,14.783814 233.160194,19.5288372 230.230869,22.4581628 M235.238159,6.84316279 C229.553008,1.15801163 220.30102,1.15801163 214.615869,6.84316279 C208.930717,12.528314 208.930717,21.7843372 214.615869,27.4694884 C218.969508,31.8231279 225.413217,32.8318488 230.743299,30.5158256 C284.604962,94.1580465 281.578799,189.821105 221.584113,249.811756 C163.990183,307.409721 73.4917756,312.517884 10.0391942,265.168523 L3.30900814,271.898709 C70.5099965,322.89157 166.980031,317.775337 228.269915,256.493523 C291.843543,192.919895 294.966543,91.4869535 237.719613,24.1407093 C240.737706,18.6088837 239.918624,11.519593 235.238159,6.84316279" id="Fill-19" fill="#CC9842" mask="url(#mask-2)"></path>
                </g>
                <path d="M109.629808,122.888033 C109.629808,118.671579 111.64725,114.947381 114.729901,112.522416 C116.985401,110.738998 119.797715,109.63344 122.884401,109.63344 L220.096855,109.63344 C221.924657,109.63344 223.667727,110.008684 225.249401,110.678474 C230.006529,112.695916 233.347413,117.40866 233.347413,122.888033 L233.347413,220.100486 C233.347413,222.791753 232.532366,225.289347 231.152436,227.379416 C228.77589,230.974498 224.712762,233.355079 220.09282,233.355079 L122.880366,233.355079 C121.056599,233.355079 119.313529,232.98387 117.731855,232.314079 C112.974727,230.296637 109.629808,225.579858 109.629808,220.100486 L109.629808,122.888033 Z M74.276157,206.845893 L74.276157,211.247951 L74.276157,211.260056 L74.276157,211.276195 L74.276157,215.682288 L100.789378,215.682288 L100.789378,220.100486 C100.789378,223.905381 101.75775,227.492393 103.460471,230.623463 C106.522948,236.260195 111.970041,240.42016 118.437959,241.743602 C119.874378,242.038149 121.359215,242.195509 122.884401,242.195509 L127.302599,242.195509 L127.302599,268.70873 L136.138994,268.70873 L136.138994,242.195509 L153.811785,242.195509 L153.81582,268.70873 L162.65625,268.70873 L162.65625,242.195509 L180.325006,242.195509 L180.329041,268.70873 L189.165436,268.70873 L189.165436,242.195509 L206.838227,242.195509 L206.842262,268.70873 L215.678657,268.70873 L215.678657,242.195509 L220.096855,242.195509 C224.664343,242.195509 228.913076,240.803474 232.439564,238.418858 C238.322424,234.440463 242.191878,227.714312 242.191878,220.100486 L242.191878,215.682288 L268.701064,215.682288 L268.701064,211.276195 C268.701064,211.27216 268.705099,211.268126 268.705099,211.264091 C268.705099,211.256021 268.701064,211.251986 268.701064,211.247951 L268.701064,206.845893 L242.191878,206.845893 L242.191878,189.173102 L268.701064,189.173102 L268.701064,184.767009 C268.701064,184.75894 268.705099,184.754905 268.705099,184.75087 C268.705099,184.746835 268.701064,184.7428 268.701064,184.73473 L268.701064,180.332672 L242.191878,180.332672 L242.191878,162.655847 L268.701064,162.655847 L268.701064,158.257823 C268.701064,158.249753 268.705099,158.245719 268.705099,158.241684 C268.705099,158.233614 268.701064,158.229579 268.701064,158.225544 L268.701064,153.819451 L242.191878,153.819451 L242.191878,136.142626 L268.701064,136.142626 L268.701064,131.740567 C268.701064,131.732498 268.705099,131.728463 268.705099,131.724428 C268.705099,131.720393 268.701064,131.716358 268.701064,131.716358 L268.701064,127.310265 L242.191878,127.310265 L242.191878,122.888033 C242.191878,111.469312 233.480564,102.043823 222.352355,100.910021 C221.609936,100.833358 220.855413,100.793009 220.09282,100.793009 L215.678657,100.793009 L215.674622,74.2838233 L206.838227,74.2838233 L206.838227,100.793009 L189.165436,100.793009 L189.165436,74.2838233 L180.325006,74.2838233 L180.325006,100.793009 L162.65625,100.793009 L162.652215,74.2838233 L153.811785,74.2838233 L153.811785,100.793009 L136.138994,100.793009 L136.138994,74.2838233 L127.302599,74.2838233 L127.302599,100.793009 L122.880366,100.793009 C110.699052,100.793009 100.789378,110.702684 100.789378,122.888033 L100.789378,127.310265 L74.276157,127.310265 L74.276157,131.712323 L74.276157,131.724428 L74.276157,131.740567 L74.276157,136.142626 L100.789378,136.142626 L100.789378,153.819451 L74.276157,153.819451 L74.276157,158.225544 L74.276157,158.241684 L74.276157,158.253788 L74.276157,162.655847 L100.789378,162.655847 L100.789378,180.332672 L74.276157,180.332672 L74.276157,184.73473 L74.276157,184.75087 L74.276157,184.762974 L74.276157,189.173102 L100.789378,189.173102 L100.789378,206.845893 L74.276157,206.845893 Z" id="Fill-22" fill="#CC9842"></path>
            </g>
        </g>
    </g>
</svg>