<?xml version="1.0" encoding="UTF-8"?>
<svg width="90px" height="84px" viewBox="0 0 90 84" version="1.1" xmlns="http://www.w3.org/2000/svg" xmlns:xlink="http://www.w3.org/1999/xlink">
    <!-- Generator: Sketch 50.2 (55047) - http://www.bohemiancoding.com/sketch -->
    <title>logo/mandiri copy 7@2x</title>
    <desc>Created with Sketch.</desc>
    <defs></defs>
    <g id="Page-1" stroke="none" stroke-width="1" fill="none" fill-rule="evenodd">
        <g id="00.-Home" transform="translate(-857.000000, -3688.000000)">
            <g id="logo/shell" transform="translate(817.000000, 3649.000000)">
                <g id="shell" transform="translate(40.750000, 33.958333)">
                    <g id="Group-14" fill="#ED1C24">
                        <path d="M43.4880235,88.2302292 C42.3910853,88.0648332 41.2941472,87.5154821 40.2148069,86.5998971 L39.5754152,86.050546 L28.2540747,86.050546 C19.290858,86.050546 16.9268683,86.021011 16.8858064,85.914685 C16.8623425,85.849708 16.7274249,84.709657 16.5807755,83.3983029 C16.439992,82.0810418 16.2757445,80.6279197 16.2229507,80.1730807 C16.1701569,79.7123347 16.0469713,78.6608886 15.9589816,77.8280015 C15.865126,77.0010215 15.7302084,75.7369234 15.6422187,75.0221764 C15.560095,74.3074293 15.4017136,72.8306792 15.284394,71.7437912 C15.1670744,70.6509961 15.0438888,69.6408991 15.0145589,69.475503 C14.9734971,69.239223 13.8061672,68.370894 8.06923918,64.2478077 C4.27981642,61.5305876 1.05352768,59.2032294 0.895146237,59.0673684 C0.625311179,58.8488094 0.601847261,58.7483904 0.408269937,57.1712213 C-1.15794659,44.3943796 1.76917718,33.2419629 9.43014643,22.7865723 C11.3248578,20.1993061 12.9204042,18.374043 14.6801981,16.7732459 C19.7601364,12.1598786 25.4208066,9.01144746 32.0258995,7.11530034 C37.7041677,5.47906125 43.8517142,5.01831522 49.7470236,5.78031826 C58.22923,6.87902033 66.1072405,10.3700575 72.7885912,16.0053359 C74.565983,17.505714 77.141148,20.1638641 78.273282,21.6524282 C86.016375,31.9069808 89.2895916,43.6914465 88.028406,56.8108943 C87.9697462,57.4075013 87.8934884,58.0454574 87.8582925,58.2167604 C87.8113647,58.4825754 87.2775606,58.9196934 84.1861894,61.2352376 C82.1976223,62.7238016 79.0065295,65.1161368 77.0942201,66.5515379 L73.6215603,69.162432 L73.4983747,70.2434131 C73.3810551,71.2712312 73.2989314,72.0332342 72.6888695,77.7275825 C72.0905396,83.2978839 71.8089726,85.76701 71.7737767,85.802452 C71.7561788,85.82608 66.7055704,85.873336 60.5521579,85.908778 L49.371601,85.979662 L48.6970133,86.5349201 C47.0428071,87.8935301 45.2067555,88.4960442 43.4880235,88.2302292" id="Fill-12"></path>
                    </g>
                    <path d="M46.0823347,81.1147385 C46.5473987,80.8891762 47.0840111,80.4914743 47.6444729,79.9572478 L48.4970903,79.1381006 L57.0232647,79.0609346 C64.6848969,79.0015761 65.5554014,78.9718969 65.5971379,78.8235006 C65.6209874,78.7344629 65.6746486,78.3248893 65.7104228,77.9271874 C65.7461969,77.5235496 65.8415947,76.5560062 65.9250677,75.7843458 C66.0085407,75.0067495 66.145675,73.6415042 66.2410728,72.7511268 C66.3305082,71.8548135 66.4676424,70.5192474 66.5511155,69.7713304 C66.6286261,69.0234134 66.7538357,67.818436 66.825384,67.1001982 L66.9505936,65.7883755 L73.8132696,60.7725829 C77.5934056,58.012413 80.7474939,55.7093034 80.8369293,55.6380732 C81.0992731,55.4481261 81.4212405,53.4180656 81.4808641,51.5245297 C81.5524124,49.5360202 81.4272029,48.1173522 81.0396495,46.5384163 C80.7355692,45.2918879 80.0498978,43.5230048 79.8769894,43.5230048 C79.8114034,43.5230048 75.7510365,47.5653182 70.8440144,52.5039448 C65.9429548,57.4485073 60.8272502,62.5948886 59.4737945,63.9541981 C57.5956512,65.847734 57.01134,66.3819605 56.9696035,66.2335642 C56.9040175,65.9723869 57.1305872,65.6637227 59.4022462,62.814515 C60.4814333,61.4611414 62.4847862,58.956213 63.8501665,57.2348167 C65.2215093,55.5193563 67.0758031,53.1865675 67.9820818,52.0528203 C75.7748859,42.294284 79.0362967,38.1688687 79.0780332,38.0145367 C79.1316944,37.8008461 78.660668,36.1269366 78.2969641,35.2662384 C77.8915236,34.2927591 77.0448685,32.8859629 76.2101382,31.7581515 C75.4469561,30.7431213 73.4972645,28.6299589 73.4078291,28.7308683 C73.3780173,28.7605476 72.6327224,30.0486269 71.7502931,31.6038194 C70.8678639,33.1590119 69.5561448,35.4621215 68.8287369,36.7264574 C68.1072914,37.9907933 67.1294644,39.7062537 66.6524756,40.5432085 C66.1814492,41.3801632 64.9174289,43.5882992 63.8501665,45.4580917 C62.7888665,47.3278842 60.8809114,50.6697674 59.6228535,52.8838392 C58.3588333,55.097911 56.48069,58.3923073 55.4432394,60.2027414 C54.4117512,62.0131754 53.5054725,63.5564962 53.4279618,63.6395981 C53.3444888,63.7167641 53.2013921,63.7464434 53.0702202,63.7048924 C52.6290056,63.5683679 52.7899893,63.0875641 54.5906219,59.2589413 C55.5445995,57.222945 56.4389534,55.3116015 56.5701254,55.0207449 C56.7012973,54.74176 57.6373877,52.7413788 58.6450265,50.5807296 C59.6586277,48.4260163 61.1313305,45.2740804 61.9302867,43.5764275 C62.7232806,41.8847104 64.9710902,37.0707366 66.9327065,32.8918987 C68.8883605,28.707125 70.4922352,25.199038 70.4922352,25.0921927 C70.4922352,24.7835286 69.7290532,23.7269474 68.9002852,22.8959285 C67.9582324,21.9461926 66.4199436,20.7768303 65.0784126,19.9873623 C63.8859407,19.2988038 61.5725451,18.1294415 61.5009968,18.1888 C61.4592603,18.2362868 61.2565401,18.9307811 59.7242136,24.3383399 C57.9355057,30.6422118 57.6075759,31.7997024 56.7847703,34.690461 C56.3018192,36.3881139 55.5922984,38.8811707 55.204745,40.2286084 C54.8291163,41.5819821 54.2090309,43.7426312 53.845327,45.0425822 C51.4305713,53.5249109 50.0651909,58.3388847 49.635901,59.8881413 C49.1767994,61.5264357 49.1171758,61.6688961 48.8667566,61.6688961 C48.5447892,61.6688961 48.5269021,61.4077188 48.7475095,60.2680357 C48.8607943,59.6863225 49.0337027,58.8078168 49.1231381,58.3210771 C49.2125735,57.8284016 49.3556701,57.0982922 49.4331808,56.7005903 C49.5166539,56.2910167 49.6955246,55.3294091 49.8445836,54.5518128 C49.9876803,53.7801524 50.3513842,51.8688089 50.6435398,50.3254881 C50.9356955,48.7702956 51.2397758,47.1438729 51.3232488,46.7105559 C51.6988775,44.6864313 51.8419741,43.950386 52.6826668,39.498499 C53.1835051,36.8807894 53.6366444,34.5005139 53.6843433,34.221529 C53.8334023,33.4558044 54.0003483,32.5357478 55.0020248,27.2647136 C55.4969006,24.647004 55.9738894,22.1302039 56.0573624,21.6672077 C56.1408355,21.2101473 56.2779697,20.5037812 56.3554804,20.1060793 C56.4270287,19.6965057 56.629749,18.6517962 56.7907327,17.7732905 L57.0888507,16.1824829 L56.8443939,15.9925357 C55.204745,14.7875583 53.2073545,14.1405508 50.3036853,13.8734375 C49.0933263,13.7606564 46.4043021,13.7665923 46.2969796,13.8853092 C46.2731302,13.9149885 46.2015819,15.5532829 46.1359959,17.5417924 C46.0644476,19.5243661 45.9630875,22.3913813 45.9153886,23.9168946 C45.772292,27.6861589 45.7245931,29.1701212 45.5993835,33.0106157 C45.5397599,34.8269856 45.4443622,37.5337329 45.3847386,39.0295669 C45.325115,40.5194651 45.2297172,43.2262123 45.1820184,45.0425822 C45.1223948,46.8530163 45.026997,49.6962881 44.9673734,51.3642617 C44.9017875,53.0381712 44.7885026,56.1248129 44.7169543,58.2379752 C44.57982,62.1200207 44.5380835,62.3990056 44.1743796,62.3990056 C43.9716593,62.3990056 43.9478099,62.0844056 43.816638,58.8968545 C43.7152779,56.2554016 43.6258425,54.3143788 43.2323267,45.404669 C43.1548161,43.4517746 43.053456,41.2139594 43.0236442,40.4363632 C42.9938324,39.6647028 42.9282464,38.0857669 42.8686228,36.9401479 C42.8089992,35.7826573 42.7195638,33.6220082 42.6599402,32.1261741 C42.6003166,30.6303401 42.5228059,28.9386231 42.4929941,28.3628457 C42.4751071,27.7870683 42.4035588,26.2378116 42.3439352,24.9081814 C42.2843116,23.5904229 42.1710267,20.8599322 42.0815913,18.8476793 C41.9921559,16.8354263 41.9086829,14.8587885 41.8967582,14.4610866 L41.8729087,13.7191055 L41.0262537,13.6419394 C39.0884868,13.4460564 36.3458013,13.7547206 34.5749805,14.366113 C33.6448524,14.6866489 32.2019613,15.4226942 31.5222523,15.9153697 L31.0452636,16.2537131 L32.8458962,25.2346531 C33.8416102,30.1792156 35.8866996,40.3473254 37.3951766,47.8443031 C38.9036536,55.3353449 40.1378621,61.6095376 40.1378621,61.7757414 C40.1378621,62.1793792 39.8755182,62.2862245 39.5952873,62.0072395 C39.4104542,61.8232282 37.7231064,56.0832619 33.8416102,42.4248727 C33.4242451,40.9587179 32.9532187,39.3144877 32.7922349,38.7624537 C32.6252889,38.2163555 31.2539461,33.4379968 29.7335444,28.1313476 C28.2191051,22.83657 26.9491224,18.4440415 26.9073859,18.3906189 C26.7583269,18.1413132 23.8546578,19.4175208 22.3700302,20.3969359 C20.7124942,21.4831963 19.1324689,23.0087096 18.0175076,24.6054531 L17.5882177,25.2287173 L22.7635459,35.990412 C25.6135539,41.9143897 28.2787287,47.4466012 28.6782068,48.283556 C29.0776849,49.1145749 29.7514315,50.5035636 30.1628343,51.3642617 C30.5801995,52.2308957 31.1883602,53.5011675 31.5282147,54.189726 C31.8561445,54.8782845 32.6252889,56.4809638 33.2334496,57.7393639 C33.8356479,59.0096356 34.6763406,60.7429036 35.0817811,61.6036018 C35.4991462,62.4583641 35.8449631,63.3071905 35.8568878,63.4793302 C35.892662,63.9245189 35.5885816,63.9660698 35.2427648,63.5802396 C35.0877434,63.4199717 33.8117984,61.3068093 32.3927568,58.8968545 C30.9796776,56.4809638 27.9388742,51.3049032 25.6433657,47.3931786 C23.3478572,43.4814539 19.9910487,37.765231 18.1844537,34.690461 C16.3838211,31.6097553 14.8753441,29.0514042 14.8276452,29.0098533 C14.6606991,28.8317778 12.6275345,31.2120534 11.607971,32.7672459 C10.4870474,34.4767705 9.68809116,36.4890234 9.52114509,38.0382801 L9.44959677,38.7149669 L16.9860194,47.9155333 C21.1358218,52.9788128 26.1978651,59.1580319 28.2429545,61.6510886 C30.3953663,64.2866057 31.9396175,66.2573076 31.9217304,66.3582171 C31.9038433,66.4472548 31.7726714,66.5422284 31.6295748,66.560036 C31.3314568,66.5956511 30.4788394,65.7468246 19.8658391,54.9732581 C11.3337024,46.3187898 8.33463551,43.3152501 8.2630872,43.3805444 C8.04844225,43.6001709 7.29718493,46.2297521 6.98714222,47.8621107 C6.70691132,49.3816881 6.73076076,52.7651222 7.04080346,54.2431487 C7.20178717,55.0266808 7.33892144,55.4065751 7.49990516,55.566843 C7.7145501,55.7745978 9.51518273,57.1517148 18.5660447,64.0016849 L21.6187729,66.3166661 L21.7439824,67.3673115 C21.8155308,67.937153 21.9407403,69.0471568 22.0301757,69.8247531 C22.1136487,70.6023493 22.2567454,71.7776475 22.3402184,72.4365268 C22.4117667,73.095406 22.6025622,74.7693155 22.7575836,76.1464326 C22.9066426,77.5294855 23.0557016,78.7641421 23.079551,78.888795 L23.1272499,79.1262289 L31.7547844,79.1262289 L40.3763565,79.1262289 L40.9904795,79.7910441 C42.1292902,81.0316366 43.2382891,81.5599271 44.5678953,81.4946328 C45.2177925,81.4708894 45.5099481,81.3996592 46.0823347,81.1147385" id="Fill-15" fill="#FFD500"></path>
                </g>
            </g>
        </g>
    </g>
</svg>