<?xml version="1.0" encoding="UTF-8"?>
<svg width="186px" height="30px" viewBox="0 0 186 30" version="1.1" xmlns="http://www.w3.org/2000/svg" xmlns:xlink="http://www.w3.org/1999/xlink">
    <!-- Generator: Sketch 50.2 (55047) - http://www.bohemiancoding.com/sketch -->
    <title>logo/mandiri copy 6@2x</title>
    <desc>Created with Sketch.</desc>
    <defs>
        <polygon id="path-1" points="1.62872452 3.5296875 20.0120611 3.5296875 20.0120611 22.8745471 1.62872452 22.8745471"></polygon>
        <polygon id="path-3" points="0 32.6733578 184.716692 32.6733578 184.716692 3.62131457 0 3.62131457"></polygon>
    </defs>
    <g id="Page-1" stroke="none" stroke-width="1" fill="none" fill-rule="evenodd">
        <g id="00.-Home" transform="translate(-648.000000, -3718.000000)">
            <g id="logo/jtrust" transform="translate(617.000000, 3600.000000)">
                <g id="Jtrust" transform="translate(31.375000, 115.041667)">
                    <g id="Group-3" transform="translate(7.240385, 0.091627)">
                        <mask id="mask-2" fill="white">
                            <use xlink:href="#path-1"></use>
                        </mask>
                        <g id="Clip-2"></g>
                        <path d="M20.0120611,13.215874 C20.0120611,7.86522981 15.6316284,3.52823942 10.2230611,3.52823942 C6.51598413,3.52823942 3.2867726,5.57002788 1.62872452,8.57116731 C1.9183399,8.54582596 2.21519567,8.53134519 2.51205144,8.53134519 C7.92061875,8.53134519 12.3010514,12.8683356 12.3010514,18.2226 C12.3010514,19.9132298 11.8702486,21.4916337 11.106388,22.8745471 C16.095013,22.4365038 20.0120611,18.2805231 20.0120611,13.215874" id="Fill-1" fill="#00ADEE" mask="url(#mask-2)"></path>
                    </g>
                    <path d="M16.8317221,24.3273665 C16.7267365,24.4033905 16.6072702,24.468554 16.491424,24.5337175 C16.2126692,24.6785251 15.926674,24.8016117 15.6261981,24.9065973 C15.2171163,25.051405 14.797174,25.1491501 14.3844721,25.203453 C12.556275,25.4351453 10.7570394,24.8233328 9.50083269,23.6141886 C8.92884231,23.0639194 8.47631827,22.397804 8.18308269,21.6339434 C7.30699615,19.3134001 8.15774135,16.8009867 10.1126452,15.3601501 C7.14046731,16.449828 5.58378462,19.6609386 6.56485673,22.6113953 C6.48883269,22.4955492 6.41642885,22.3833232 6.34764519,22.2710973 C4.51220769,19.0889482 5.57292404,15.0343328 8.72249135,13.2169963 C11.7344913,11.479304 15.5610346,12.4169338 17.5014577,15.2805059 C17.4833567,15.2587848 17.4761163,15.2406838 17.4616356,15.2189626 C15.2171163,11.3200155 10.2646933,9.9696838 6.41280865,12.1961021 C4.15742885,13.4921309 2.77813558,15.7221694 2.46679904,18.1223569 C2.28216923,17.485203 2.18442404,16.8082271 2.18442404,16.10953 C2.18442404,12.3010876 5.09143846,9.15876072 8.86729904,8.66279437 C3.88953462,9.11893861 0.00144807692,13.2568184 0.00144807692,18.2997463 C0.00144807692,23.6467703 4.38188077,27.9837607 9.7795875,27.9837607 C13.4939048,27.9837607 16.715876,25.9383521 18.373924,22.9227319 C17.9612221,23.4730011 17.4399144,23.9508665 16.8317221,24.3273665" id="Fill-4" fill="#00ADEE"></path>
                    <path d="M132.331424,12.8513569 L132.331424,9.41217418 L137.388832,9.41217418 C138.959996,9.41217418 139.054121,10.2158569 139.054121,11.0629819 C139.054121,12.0150925 138.876731,12.8513569 137.388832,12.8513569 L132.331424,12.8513569 Z M132.331424,14.9474482 L137.707409,14.9474482 C138.047707,14.9474482 139.582669,14.7990203 139.582669,16.7466838 C139.582669,18.7015876 138.348183,18.6002223 137.808775,18.6002223 L132.331424,18.6002223 L132.331424,14.9474482 Z M129.992779,7.20747707 L129.992779,20.797679 L138.373525,20.797679 C140.371871,20.797679 142.037159,20.1134626 142.037159,17.1014626 C142.022678,15.2660251 141.410866,14.0641213 139.242371,13.7600251 C139.242371,13.7600251 141.552053,13.5609146 141.552053,10.7009626 C141.552053,7.50071264 139.647832,7.20747707 138.442308,7.20747707 L129.992779,7.20747707 Z" id="Fill-6" fill="#231F20"></path>
                    <path d="M76.9203981,14.1806915 C76.9203981,14.1806915 78.915124,13.8765953 78.915124,10.8971771 C78.915124,7.92861937 76.0986144,7.18647995 74.6976,7.18647995 L66.6752538,7.18647995 L66.6752538,20.798403 L69.1514654,20.798403 L69.1514654,9.24636937 L74.1183692,9.24636937 C74.5129702,9.24636937 76.4606337,9.11242226 76.4606337,11.197653 C76.4606337,13.3661482 74.1726721,13.1670376 74.1726721,13.1670376 L71.0701673,13.1670376 L71.0701673,15.2233069 L74.1400904,15.2233069 C75.0197971,15.2233069 76.2615231,15.2052059 76.2615231,17.3012973 L76.2615231,20.798403 L78.7015327,20.798403 L78.7015327,17.0370232 C78.7015327,14.604254 76.9203981,14.1806915 76.9203981,14.1806915" id="Fill-8" fill="#231F20"></path>
                    <path d="M91.0615933,7.18792803 L91.0615933,16.1225626 C91.0615933,17.8566348 90.6923337,18.9282117 87.2060885,18.9282117 C83.7198433,18.9282117 83.2673192,17.9217982 83.2673192,16.1225626 L83.2673192,7.18792803 L80.7730067,7.18792803 L80.7730067,16.4520001 C80.7730067,17.9580001 80.852651,21.0822261 87.1300644,21.0822261 C93.4183385,21.0822261 93.541425,18.1571107 93.541425,16.4520001 L93.541425,7.18792803 L91.0615933,7.18792803 Z" id="Fill-10" fill="#231F20"></path>
                    <path d="M99.7004582,12.6783117 C98.3066841,12.5226434 97.7274534,12.1027011 97.7274534,11.1723117 C97.7274534,10.0536723 98.172737,9.05087899 101.42005,9.05087899 C104.761487,9.05087899 105.19229,9.96678764 105.19229,11.7225809 L107.581617,11.7225809 C107.581617,10.2491626 107.512833,6.95116745 101.488833,6.95116745 C95.6386024,6.95116745 95.3562274,9.85818188 95.3562274,11.4908886 C95.3562274,13.1199751 96.5653716,14.3472203 98.7483476,14.6006338 C102.911569,15.0821194 105.57241,14.9554126 105.57241,16.693105 C105.57241,17.9420713 105.206771,18.952105 101.738626,18.952105 C98.2704822,18.952105 97.8179582,18.0325761 97.8179582,16.2586819 L95.3562274,16.2586819 C95.3562274,17.7574415 95.4250111,21.080778 101.666223,21.080778 C107.914675,21.080778 108.045001,17.8407059 108.045001,16.5772588 C108.045001,12.8882828 103.396675,13.080153 99.7004582,12.6783117" id="Fill-12" fill="#231F20"></path>
                    <path d="M39.6208327,21.0887425 C45.894626,21.0887425 45.8873856,17.7617857 45.8873856,16.4005934 L45.8873856,7.18720399 L40.0262942,7.18720399 L40.0262942,9.21089149 L43.411174,9.21089149 L43.411174,16.0711559 C43.411174,18.087603 42.5966308,18.9600694 39.5846308,18.9600694 C35.8341115,18.9600694 35.823251,17.5373338 35.823251,15.1226655 L33.5425298,15.1226655 C33.5425298,17.3454636 33.0393231,21.0887425 39.6208327,21.0887425" id="Fill-14" fill="#231F20"></path>
                    <polygon id="Fill-16" fill="#231F20" points="57.3894606 9.24528332 57.3894606 20.8045574 59.8729125 20.8045574 59.8729125 9.24528332 65.0063452 9.24528332 65.0063452 7.18901409 52.2632683 7.18901409 52.2632683 9.24528332"></polygon>
                    <polygon id="Fill-18" fill="#231F20" points="113.869891 9.24528332 113.869891 20.8045574 116.353343 20.8045574 116.353343 9.24528332 121.483155 9.24528332 121.483155 7.18901409 108.732838 7.18901409 108.732838 9.24528332"></polygon>
                    <path d="M147.109411,15.6124775 L149.35031,9.32058332 L151.587588,15.6124775 L147.109411,15.6124775 Z M152.380411,17.7809727 L153.477329,20.8002131 L156.264877,20.8002131 L151.022838,7.2100112 L147.703122,7.2100112 L142.435742,20.8002131 L145.252252,20.8002131 L146.33831,17.7809727 L152.380411,17.7809727 Z" id="Fill-20" fill="#231F20"></path>
                    <mask id="mask-4" fill="white">
                        <use xlink:href="#path-3"></use>
                    </mask>
                    <g id="Clip-23"></g>
                    <path d="M172.125663,20.8027473 L174.569293,20.8027473 L174.569293,7.20892514 L172.125663,7.20892514 L172.125663,20.8027473 Z M184.318471,20.7991271 L177.88901,13.794055 L184.014375,7.20892514 L180.792404,7.20892514 L174.866149,13.794055 L181.024096,20.7991271 L184.318471,20.7991271 Z" id="Fill-22" fill="#231F20" mask="url(#mask-4)"></path>
                    <polygon id="Fill-24" fill="#231F20" mask="url(#mask-4)" points="165.927894 20.7991271 169.772538 20.7991271 169.772538 7.20892514 167.35063 7.20892514 167.35063 18.4604828 161.170962 7.20892514 157.322697 7.20892514 157.322697 20.7991271 159.769947 20.7991271 159.769947 9.6308338"></polygon>
                    <path d="M126.674873,23.4291968 L126.674873,25.9235093 C128.427046,26.3868939 130.066993,27.161615 131.623676,28.0666631 L130.94308,29.4640574 C130.048892,28.8594852 127.840575,27.6539612 126.674873,27.3426247 L126.674873,32.3022881 L125.237657,32.3022881 L125.237657,23.4291968 L126.674873,23.4291968 Z" id="Fill-25" fill="#231F20" mask="url(#mask-4)"></path>
                    <path d="M141.777953,26.1866973 C141.434035,29.3326444 140.39866,31.7255915 135.12766,32.1781155 L134.736679,30.9363896 C139.160554,30.7336588 139.866492,28.9235626 140.188689,27.442904 L133.556497,27.442904 L133.556497,26.1866973 L141.777953,26.1866973 Z M134.273295,25.0571973 L141.191482,25.0571973 L141.191482,23.7973703 L134.273295,23.7973703 L134.273295,25.0571973 Z" id="Fill-26" fill="#231F20" mask="url(#mask-4)"></path>
                    <path d="M143.768335,31.1043665 C146.023715,30.2391405 148.326157,28.1973521 149.430316,25.297578 L144.354806,25.297578 L144.354806,24.0124098 L151.236792,24.0124098 C151.102845,24.6676646 150.798749,26.1772848 149.383253,28.1864915 C150.610499,29.1313617 151.689316,30.0581309 152.735551,31.0935059 L151.595191,32.2121453 C150.668422,31.133328 149.654768,30.1377751 148.579571,29.2037655 C147.464551,30.4889338 146.132321,31.5786117 144.564777,32.2230059 L143.768335,31.1043665 Z" id="Fill-27" fill="#231F20" mask="url(#mask-4)"></path>
                    <path d="M158.365675,23.4291968 L158.365675,25.9235093 C160.114227,26.3868939 161.757795,27.161615 163.314477,28.0666631 L162.633881,29.4640574 C161.736074,28.8594852 159.531376,27.6539612 158.365675,27.3426247 L158.365675,32.3022881 L156.928458,32.3022881 L156.928458,23.4291968 L158.365675,23.4291968 Z" id="Fill-28" fill="#231F20" mask="url(#mask-4)"></path>
                    <path d="M178.298091,23.4186982 C177.921591,24.1934194 177.012923,25.4894482 175.731375,26.2967511 L175.086981,25.0695059 C175.463481,24.8559146 176.335947,24.356328 177.168591,22.9987559 L178.298091,23.4186982 Z M178.598567,25.6197751 C178.446519,25.9528328 178.207587,26.5175828 177.51251,27.4515925 L177.51251,32.6139867 L176.245442,32.6139867 L176.245442,28.8815684 C175.872563,29.2254867 175.731375,29.3123713 175.521404,29.4535588 L175.108702,27.9982415 C176.165798,27.2633425 176.969481,26.2352078 177.563192,25.0912271 L178.598567,25.6197751 Z M184.713072,26.27503 L184.713072,27.4914146 L183.246894,27.4914146 L183.246894,31.6763569 C183.246894,32.3641934 182.993481,32.6031261 182.240481,32.6031261 L180.227654,32.6031261 L180.006822,31.2745155 L181.646769,31.2745155 C181.878462,31.2745155 181.968966,31.2346934 181.968966,30.9849001 L181.968966,27.4914146 L178.526163,27.4914146 L178.526163,26.27503 L184.713072,26.27503 Z M178.942486,24.7074867 L184.332952,24.7074867 L184.332952,23.4983425 L178.942486,23.4983425 L178.942486,24.7074867 Z" id="Fill-29" fill="#231F20" mask="url(#mask-4)"></path>
                    <path d="M117.320658,32.5292742 C121.393375,32.5292742 121.386134,30.3571588 121.386134,29.4738319 L121.386134,23.4643126 L117.581312,23.4643126 L117.581312,24.7856828 L119.782389,24.7856828 L119.782389,29.2602405 C119.782389,30.5743703 119.250221,31.1463607 117.298937,31.1463607 C114.862548,31.1463607 114.851687,30.2123511 114.851687,28.6375675 L113.374649,28.6375675 C113.374649,30.0892646 113.045211,32.5292742 117.320658,32.5292742" id="Fill-30" fill="#231F20" mask="url(#mask-4)"></path>
                    <path d="M168.590184,31.8573665 C167.924068,31.9876934 166.07415,32.3026501 164.774501,32.4329771 L164.633313,31.2564146 C164.955511,31.2238328 165.32115,31.2021117 166.316703,31.0826453 L166.316703,28.4761069 L164.676756,28.4761069 L164.676756,27.3719482 L166.316703,27.3719482 L166.316703,26.6406694 L165.400794,26.6406694 L165.400794,26.0541982 C165.198063,26.2352078 165.085838,26.3293328 164.868626,26.4886213 L164.506607,25.2287944 C165.368213,24.6278425 165.853318,24.0449915 166.323943,23.1182223 L167.554809,23.1182223 C168.018193,23.9400059 168.376592,24.3780492 169.111491,24.8884963 L168.416414,25.9130107 C168.347631,25.8659482 168.318669,25.8333665 168.286088,25.8116453 L168.286088,26.6406694 L167.381039,26.6406694 L167.381039,27.3719482 L168.850838,27.3719482 L168.850838,28.4761069 L167.381039,28.4761069 L167.381039,30.9414578 C167.605491,30.9124963 168.731371,30.7423473 168.850838,30.7242463 L168.868938,31.3179578 C168.963063,31.3070973 169.020987,31.3070973 169.191136,31.2745155 L169.191136,23.357155 L173.79964,23.357155 L173.79964,28.0163425 L172.007645,28.0163425 C172.051088,28.309578 172.112631,28.6390155 172.300881,29.1422223 C172.894592,28.7512415 173.202309,28.4109434 173.4159,28.1647703 L174.139938,29.1205011 C173.958929,29.2942703 173.567948,29.6671501 172.793227,30.1088136 C173.296434,30.8654338 173.861184,31.2853761 174.270265,31.5894723 L173.495544,32.67553 C172.923554,32.2592078 171.384972,31.1659098 170.925208,28.0163425 L170.378559,28.0163425 L170.378559,31.0826453 C171.124318,30.9414578 171.403073,30.8799146 171.779573,30.79303 L171.779573,31.9370107 C170.367698,32.3026501 169.129592,32.4836598 168.666208,32.5524434 L168.590184,31.8573665 Z M165.69041,28.892429 C165.795395,29.2544482 165.943823,30.0364098 165.994506,30.6192607 L165.067737,30.8038905 C165.056876,29.9857271 164.846905,29.2037655 164.807083,29.0553376 L165.69041,28.892429 Z M168.036294,25.5835732 C167.471544,25.0369242 167.167448,24.5554386 166.950237,24.1825588 C166.758366,24.5047559 166.548395,24.8884963 165.88228,25.5835732 L168.036294,25.5835732 Z M168.731371,28.9394915 C168.658967,29.4970011 168.579323,29.9857271 168.427275,30.5215155 L167.652554,30.3694675 C167.793741,29.7359338 167.844424,29.4137367 167.887866,28.8308857 L168.731371,28.9394915 Z M170.378559,25.2287944 L172.612217,25.2287944 L172.612217,24.4359723 L170.378559,24.4359723 L170.378559,25.2287944 Z M170.378559,26.9773473 L172.612217,26.9773473 L172.612217,26.1519434 L170.378559,26.1519434 L170.378559,26.9773473 Z" id="Fill-31" fill="#231F20" mask="url(#mask-4)"></path>
                </g>
            </g>
        </g>
    </g>
</svg>