<?xml version="1.0" encoding="UTF-8"?>
<svg width="122px" height="150px" viewBox="0 0 122 150" version="1.1" xmlns="http://www.w3.org/2000/svg" xmlns:xlink="http://www.w3.org/1999/xlink">
    <!-- Generator: Sketch 50.2 (55047) - http://www.bohemiancoding.com/sketch -->
    <title>CS@2x</title>
    <desc>Created with Sketch.</desc>
    <defs></defs>
    <g id="Page-1" stroke="none" stroke-width="1" fill="none" fill-rule="evenodd">
        <g id="00.-Home" transform="translate(-363.000000, -1296.000000)">
            <g id="CS" transform="translate(363.000000, 1296.000000)">
                <path d="M121.585903,75.3303965 C121.585903,108.905433 94.3676946,136.123348 60.7929515,136.123348 C27.2179148,136.123348 0,108.905433 0,75.3303965 C0,41.7553598 27.2179148,14.5374449 60.7929515,14.5374449 C94.3676946,14.5374449 121.585903,41.7553598 121.585903,75.3303965" id="Fill-1" fill="#CC9842"></path>
                <path d="M101.703126,61.4537445 L97.1365639,61.4537445 L97.1365639,38.9867841 L101.703126,38.9867841 C106.115018,38.9867841 109.69163,42.5708804 109.69163,46.9920719 L109.69163,53.4481653 C109.69163,57.8696482 106.115018,61.4537445 101.703126,61.4537445" id="Fill-3" fill="#CC9842"></path>
                <path d="M103.0837,61.4537445 C105.908166,60.8289134 108.177738,58.699925 109.030837,55.9354398 L109.030837,44.5050889 C108.177738,41.7403074 105.908166,39.6116153 103.0837,38.9867841 L103.0837,61.4537445 Z" id="Fill-5" fill="#C48A37"></path>
                <path d="M115.638767,128.068273 C115.638767,120.029018 111.633733,112.426346 104.80839,108.143747 C102.891857,106.941466 100.784607,106.001426 98.5326366,105.3759 L87.8994211,102.422907 L60.4624086,111.539456 L33.0253961,102.422907 L22.3918876,105.3759 C20.1402099,106.001426 18.0329606,106.941466 16.1164272,108.143747 C9.29108399,112.426346 5.28634361,120.029018 5.28634361,128.068273 L5.28634361,148.017621 L60.4624086,148.017621 L115.638767,148.017621 L115.638767,128.068273 Z" id="Fill-7" fill="#209995"></path>
                <polygon id="Fill-9" fill="#155C5E" points="107.048458 148.017621 116.299559 148.017621 116.299559 121.103448 107.048458 108.370044"></polygon>
                <path d="M16.5198238,148.678414 L25.7709251,148.678414 L25.7709251,125.550661 C20.6615175,125.550661 16.5198238,129.582797 16.5198238,134.556753 L16.5198238,148.678414 Z" id="Fill-11" fill="#155C5E"></path>
                <polygon id="Fill-13" fill="#FFFFFF" points="74.6696035 109.115401 61.1232004 111.674009 47.5770925 109.115401 47.5770925 75.3303965 74.6696035 75.3303965"></polygon>
                <polygon id="Fill-15" fill="#39C4BA" points="74.6696035 97.5396293 65.4185022 105.066079 65.4185022 88.5462555 74.6696035 88.5462555"></polygon>
                <path d="M74.2695703,108.738285 L74.2722135,108.738285 L74.2695703,108.738285 Z M49.0382457,107.32704 L60.7929515,109.552029 L72.5476574,107.32704 L72.5476574,76.7604427 L49.0382457,76.7604427 L49.0382457,107.32704 Z M60.7929515,112.995595 C60.6848731,112.995595 60.576501,112.985408 60.4701847,112.965327 L46.9932723,110.414375 C46.1818028,110.260707 45.5947137,109.557267 45.5947137,108.738285 L45.5947137,75.0543757 C45.5947137,74.1119934 46.36536,73.3480176 47.3166265,73.3480176 L74.2695703,73.3480176 C75.2202494,73.3480176 75.9911894,74.1119934 75.9911894,75.0543757 L75.9911894,108.738285 C75.9911894,109.557267 75.4041003,110.260707 74.5926308,110.414375 L61.1163058,112.965327 C61.0094021,112.985408 60.90103,112.995595 60.7929515,112.995595 Z" id="Fill-17" fill="#194649"></path>
                <path d="M53.9055626,21.8167584 C53.9099474,21.7939969 53.9517494,21.8150075 53.9751351,21.8150075 C54.0455846,21.8150075 54.1151572,21.8196765 54.1856067,21.8202602 L54.185022,21.8202602 C54.0517234,22.8865488 53.9751351,23.9703463 53.9751351,25.0728199 C53.9751351,39.4362006 72.4568753,51.0801659 86.8455285,51.0801659 C87.4176019,51.0801659 87.9835364,51.0553617 88.5462555,51.018885 L88.5462555,63.4843069 C88.5462555,78.7852863 76.1208341,91.1894273 60.7929515,91.1894273 C45.465069,91.1894273 33.0396476,78.7852863 33.0396476,63.4843069 L33.0396476,49.5201279 C33.0396476,49.5201279 49.6005425,44.4869187 53.9055626,21.8167584" id="Fill-19" fill="#FFFFFF"></path>
                <polygon id="Fill-21" fill="#39C4BA" points="87.8854626 73.0899794 78.6343612 85.9030837 78.6343612 51.5418502 87.8854626 51.5418502"></polygon>
                <path d="M53.8676574,22.2680516 C53.8911718,22.2680516 53.9140984,22.2662904 53.9376128,22.2662904 C54.00845,22.2662904 54.0784055,22.270987 54.1492427,22.2715741 L54.1486548,22.2715741 C54.0146226,23.3441695 53.9376128,24.4343772 53.9376128,25.5433716 C53.9376128,39.9917067 72.5210685,51.7045421 86.9889107,51.7045421 C87.5641325,51.7045421 88.1331818,51.6795912 88.6989978,51.6428987 L88.6989978,64.1820493 C88.6989978,65.6679491 88.579956,91.087931 88.3553931,92.5110132 C93.3480949,91.6121936 97.1365639,87.2540043 97.1365639,82.0093241 L97.1365639,38.2777263 C97.1365639,18.2321694 80.8648708,1.98237885 60.7929515,1.98237885 C40.7210323,1.98237885 24.4493392,18.2321694 24.4493392,38.2777263 L24.4493392,58.0473557 C24.4493392,63.2920359 28.2378081,67.6499316 33.2305099,68.5490448 C33.0059471,67.1259626 32.8869053,65.6679491 32.8869053,64.1820493 L32.8869053,50.135277 C32.8869053,50.135277 52.1196533,39.5076592 53.8676574,22.2680516" id="Fill-23" fill="#155C5E"></path>
                <path d="M19.8826712,61.4537445 L24.4493392,61.4537445 L24.4493392,38.9867841 L19.8826712,38.9867841 C15.4709682,38.9867841 11.8942731,42.5708804 11.8942731,46.9920719 L11.8942731,53.4481653 C11.8942731,57.8696482 15.4709682,61.4537445 19.8826712,61.4537445" id="Fill-25" fill="#CC9842"></path>
                <path d="M64.7712126,83.2599119 L57.4754835,83.2599119 C54.9282651,83.2599119 52.8634361,81.1889705 52.8634361,78.6342118 C52.8634361,76.0797519 54.9282651,74.0088106 57.4754835,74.0088106 L64.7712126,74.0088106 C67.3184309,74.0088106 69.3832599,76.0797519 69.3832599,78.6342118 C69.3832599,81.1889705 67.3184309,83.2599119 64.7712126,83.2599119" id="Fill-27" fill="#CC9842"></path>
                <path d="M7.41568803,146.584352 L114.831008,146.584352 L114.831008,128.391839 C114.831008,120.894893 110.970675,113.832877 104.756646,109.961324 C102.943914,108.832194 100.97578,107.970489 98.907871,107.400098 L88.7334395,104.59446 L61.6690218,113.523794 C61.3146576,113.64061 60.9317441,113.64061 60.5776743,113.523794 L33.5135509,104.59446 L23.338825,107.400098 C21.2703271,107.970489 19.3024874,108.832194 17.49005,109.961324 C11.2760208,113.832877 7.41568803,120.894893 7.41568803,128.391548 L7.41568803,146.584352 Z M116.55662,150 L5.69007571,150 C4.73735405,150 3.96475771,149.235303 3.96475771,148.292322 L3.96475771,128.391548 C3.96475771,119.731388 8.44287326,111.561799 15.6517122,107.070622 C17.7472878,105.765248 20.0221057,104.768956 22.4125924,104.110006 L33.0953187,101.163955 C33.4270201,101.072483 33.7778524,101.081513 34.104256,101.189008 L61.123348,110.103485 L88.14244,101.189008 C88.468255,101.081513 88.8199702,101.072483 89.1513773,101.163955 L99.8338093,104.110006 C102.224296,104.768956 104.499114,105.764956 106.594984,107.070622 C113.803528,111.561799 118.281938,119.731388 118.281938,128.391839 L118.281938,148.292322 C118.281938,149.235303 117.509342,150 116.55662,150 Z" id="Fill-29" fill="#194649"></path>
                <path d="M25.4406695,150 C24.5282399,150 23.7885463,149.22728 23.7885463,148.274113 L23.7885463,125.294169 C23.7885463,124.341001 24.5282399,123.568282 25.4406695,123.568282 C26.3528174,123.568282 27.092511,124.341001 27.092511,125.294169 L27.092511,148.274113 C27.092511,149.22728 26.3528174,150 25.4406695,150" id="Fill-31" fill="#194649"></path>
                <path d="M95.4847224,150 C94.5722927,150 93.8325991,149.22728 93.8325991,148.274113 L93.8325991,125.294169 C93.8325991,124.341001 94.5722927,123.568282 95.4847224,123.568282 C96.3968703,123.568282 97.1365639,124.341001 97.1365639,125.294169 L97.1365639,148.274113 C97.1365639,149.22728 96.3968703,150 95.4847224,150" id="Fill-33" fill="#194649"></path>
                <polygon id="Fill-35" fill="#39C4BA" points="51.541949 120.92511 33.0396476 102.422809 42.2909465 93.1718062 60.7929515 111.674108"></polygon>
                <polygon id="Fill-37" fill="#39C4BA" points="70.0441516 120.92511 88.5462555 102.422809 79.2950554 93.1718062 60.7929515 111.674108"></polygon>
                <path d="M98.5409339,60.0347152 L101.384405,60.0347152 C104.826319,60.0347152 107.626756,57.2219174 107.626756,53.7648102 L107.626756,47.3368015 C107.626756,43.8794042 104.826319,41.0668965 101.384405,41.0668965 L98.5409339,41.0668965 L98.5409339,60.0347152 Z M101.384405,63.4361233 L96.8475595,63.4361233 C95.9123477,63.4361233 95.154185,62.6746141 95.154185,61.7355643 L95.154185,39.3660474 C95.154185,38.4267075 95.9123477,37.6651982 96.8475595,37.6651982 L101.384405,37.6651982 C106.693566,37.6651982 111.013216,42.0039156 111.013216,47.3368015 L111.013216,53.7648102 C111.013216,59.0976961 106.693566,63.4361233 101.384405,63.4361233 Z" id="Fill-39" fill="#194649"></path>
                <path d="M19.5408804,41.0666447 C16.0989034,41.0666447 13.298416,43.8794742 13.298416,47.3366202 L13.298416,53.7647014 C13.298416,57.2221375 16.0989034,60.0346769 19.5408804,60.0346769 L22.3841145,60.0346769 L22.3841145,41.0666447 L19.5408804,41.0666447 Z M24.0775198,63.4361233 L19.5408804,63.4361233 C14.2313342,63.4361233 9.91189427,59.0976473 9.91189427,53.7647014 L9.91189427,47.3366202 C9.91189427,42.0036743 14.2313342,37.6651982 19.5408804,37.6651982 L24.0775198,37.6651982 C25.0127486,37.6651982 25.7709251,38.426426 25.7709251,39.3657764 L25.7709251,61.7355452 C25.7709251,62.6748956 25.0127486,63.4361233 24.0775198,63.4361233 Z" id="Fill-41" fill="#194649"></path>
                <path d="M87.9736018,93.8325991 C87.5282498,93.8325991 87.0955132,93.6593713 86.7710341,93.3428129 C86.3732098,92.9538565 86.1883799,92.396655 86.2746338,91.8473676 C86.4606372,90.3141111 86.5964725,66.8741342 86.5964725,63.8266734 L86.5964725,53.0859641 C79.0562938,53.0821537 70.4907493,50.0980046 63.681382,45.1013647 C56.083994,39.5264196 51.9000911,32.4744951 51.9000911,25.244653 C51.9000911,24.4371359 51.9391107,23.6023597 52.0168566,22.7535142 C51.8983308,22.5210783 51.8311466,22.258159 51.8302665,21.9794117 C51.827626,21.0376505 52.5836682,20.2705826 53.5233668,20.2559271 C53.6234096,20.2524098 53.7058496,20.2547547 53.794744,20.2579789 L53.8449121,20.2594444 C54.3360315,20.2632548 54.8019201,20.4766386 55.1255191,20.8459568 C55.4488247,21.2149818 55.5990356,21.704768 55.5380124,22.1916231 C55.4065778,23.2386107 55.3399804,24.2659599 55.3399804,25.244653 C55.3399804,31.3524714 59.0254294,37.42072 65.7177378,42.3314788 C71.9620538,46.9136616 79.7721428,49.6492537 86.6096747,49.6492537 C87.0864184,49.6492537 87.5933803,49.6307878 88.2053726,49.591218 C88.6812362,49.5604415 89.1462447,49.7278071 89.4927273,50.0525726 C89.8395034,50.3773381 90.0363619,50.8310718 90.0363619,51.3062025 L90.0363619,63.8266734 C90.0363619,64.0459194 89.9656571,82.6706914 89.7893353,89.7621857 C92.9156006,88.3403109 95.0182604,85.1984688 95.0182604,81.6278073 L95.0182604,37.9603349 C95.0182604,18.9240369 79.5166082,3.43671039 60.4627018,3.43671039 C41.4085019,3.43671039 25.9068497,18.9240369 25.9068497,37.9603349 L25.9068497,57.7009752 C25.9068497,61.2009973 27.9273629,64.2889072 30.9515317,65.7488863 C30.9098717,65.1069762 30.8887483,64.4653592 30.8887483,63.8266734 L30.8887483,49.8004983 C30.8887483,48.8517024 31.6588727,48.0822897 32.6085462,48.0822897 C33.5585131,48.0822897 34.3286376,48.8517024 34.3286376,49.8004983 L34.3286376,63.8266734 C34.3286376,65.1872882 34.4368951,66.5643173 34.6504763,67.9199493 C34.737317,68.4695299 34.5521937,69.0267313 34.1540761,69.4156877 C33.7562518,69.8046442 33.194721,69.9772858 32.6463924,69.8782147 C26.7479723,68.8159854 22.4669604,63.6944809 22.4669604,57.7009752 L22.4669604,37.9603349 C22.4669604,17.0287901 39.5117954,0 60.4627018,0 C81.4136081,0 98.4581498,17.0287901 98.4581498,37.9603349 L98.4581498,81.6278073 C98.4581498,87.6216061 94.1774312,92.7428175 88.2787178,93.8053399 C88.177208,93.8235127 88.0751115,93.8325991 87.9736018,93.8325991" id="Fill-43" fill="#194649"></path>
                <path d="M34.5159867,51.3205019 L34.5159867,64.197049 C34.5159867,78.6373386 46.3036517,90.3855452 60.793099,90.3855452 C75.2822514,90.3855452 87.0699163,78.6373386 87.0699163,64.197049 L87.0699163,53.4240132 C79.4887605,53.4201913 70.8760364,50.4270608 64.0293971,45.4153824 C58.4181618,41.3080229 54.6588525,36.4012996 53.0582551,31.2117563 C50.2163541,38.4122036 46.1520286,43.1298901 42.8251696,46.0348232 C39.3773661,49.0455933 36.1912157,50.6225653 34.5159867,51.3205019 M60.793099,93.8325991 C44.3965633,93.8325991 31.0572687,80.5379956 31.0572687,64.197049 L31.0572687,50.1286591 C31.0572687,49.3701602 31.5549111,48.7007409 32.2829381,48.479953 C32.3174515,48.4690753 36.2785317,47.2125543 40.679732,43.3245127 C46.5723845,38.1190938 50.4293344,30.9101207 52.1437966,21.8975078 C52.2317026,21.4362347 52.50958,21.0225882 52.9042721,20.7662273 C53.1110577,20.6318731 53.5181392,20.4348986 54.0612096,20.4960489 C54.0706492,20.4966369 54.0794988,20.4969309 54.0889383,20.4972248 L54.1390861,20.4986948 C54.6328936,20.5025167 55.1013324,20.7165427 55.4267026,21.0869724 C55.7517779,21.4571081 55.902811,21.9483684 55.8414538,22.4366888 C55.7092998,23.4868275 55.6423378,24.5172688 55.6423378,25.4989075 C55.6423378,31.6251087 59.3479596,37.7116211 66.0768992,42.6371598 C72.3553942,47.2331338 80.2082328,49.9769593 87.0831907,49.9769593 C87.562544,49.9769593 88.0722809,49.9584378 88.6876229,49.9187489 C89.1660912,49.8875858 89.633645,50.0557491 89.9820242,50.381492 C90.3306983,50.7072349 90.5286344,51.1623343 90.5286344,51.638895 L90.5286344,64.197049 C90.5286344,80.5379956 77.1893398,93.8325991 60.793099,93.8325991" id="Fill-45" fill="#194649"></path>
                <path d="M57.1797858,76.1360954 C55.6146955,76.1360954 54.3414917,77.4050445 54.3414917,78.9646106 C54.3414917,80.5244709 55.6146955,81.7931259 57.1797858,81.7931259 L64.4064124,81.7931259 C65.9712076,81.7931259 67.2441162,80.5244709 67.2441162,78.9646106 C67.2441162,77.4050445 65.9712076,76.1360954 64.4064124,76.1360954 L57.1797858,76.1360954 Z M64.4064124,85.2422907 L57.1797858,85.2422907 C53.7066606,85.2422907 50.8810573,82.4261297 50.8810573,78.9646106 C50.8810573,75.5033857 53.7066606,72.6872247 57.1797858,72.6872247 L64.4064124,72.6872247 C67.8792425,72.6872247 70.7048458,75.5033857 70.7048458,78.9646106 C70.7048458,82.4261297 67.8792425,85.2422907 64.4064124,85.2422907 Z" id="Fill-47" fill="#194649"></path>
                <path d="M89.4126873,79.9559471 L69.1283429,79.9559471 C68.1743055,79.9559471 67.4008811,79.1935895 67.4008811,78.2532031 C67.4008811,77.3131072 68.1743055,76.5507496 69.1283429,76.5507496 L89.4126873,76.5507496 C92.8599504,76.5507496 95.6643137,73.7865133 95.6643137,70.3885763 L95.6643137,44.6542858 C95.6643137,43.7138995 96.4377381,42.9515419 97.3914809,42.9515419 C98.3455183,42.9515419 99.1189427,43.7138995 99.1189427,44.6542858 L99.1189427,70.3885763 C99.1189427,75.6640913 94.7647842,79.9559471 89.4126873,79.9559471" id="Fill-49" fill="#194649"></path>
                <path d="M35.8891902,102.778467 L51.8469324,118.736095 L58.6039072,111.979169 L42.6464597,96.0215401 L35.8891902,102.778467 Z M51.8469324,122.907489 C51.404857,122.907489 50.9627816,122.738617 50.6250361,122.401169 L32.2237959,104.000354 C31.899902,103.676168 31.7180617,103.236748 31.7180617,102.778467 C31.7180617,102.320185 31.899902,101.880765 32.2237959,101.556579 L41.4245633,92.3561719 C42.0994651,91.6815697 43.1934543,91.6815697 43.8680613,92.3561719 L62.2693014,110.757281 C62.5931953,111.081467 62.7753304,111.520887 62.7753304,111.979169 C62.7753304,112.437156 62.5931953,112.87687 62.2693014,113.200762 L53.0688287,122.401169 C52.7310831,122.738617 52.2890078,122.907489 51.8469324,122.907489 Z" id="Fill-51" fill="#194649"></path>
                <polygon id="Fill-53" fill="#209995" points="73.3480176 98.8123681 82.7298414 107.709251 88.5462555 102.12461 79.2223719 93.1718062"></polygon>
                <path d="M62.9819168,111.979143 L69.739058,118.736086 L85.6962026,102.778419 L78.9393561,96.0214764 L62.9819168,111.979143 Z M69.739058,122.907489 C69.296991,122.907489 68.8546293,122.738912 68.5171848,122.401462 L59.316592,113.201033 C58.9927043,112.876846 58.8105727,112.437425 58.8105727,111.979143 C58.8105727,111.52086 58.9927043,111.081439 59.316592,110.757252 L77.7177777,92.3563942 C78.3920772,91.6814956 79.486635,91.6814956 80.1609345,92.3563942 L89.3615274,101.556823 C89.6854151,101.88101 89.8678414,102.320431 89.8678414,102.778419 C89.8678414,103.236702 89.6854151,103.676417 89.3615274,104.00031 L70.9603417,122.401462 C70.6234867,122.738912 70.181125,122.907489 69.739058,122.907489 Z" id="Fill-55" fill="#194649"></path>
            </g>
        </g>
    </g>
</svg>