<?xml version="1.0" encoding="UTF-8"?>
<svg width="303px" height="59px" viewBox="0 0 303 59" version="1.1" xmlns="http://www.w3.org/2000/svg" xmlns:xlink="http://www.w3.org/1999/xlink">
    <!-- Generator: Sketch 50.2 (55047) - http://www.bohemiancoding.com/sketch -->
    <title>Logo/normal@2x</title>
    <desc>Created with Sketch.</desc>
    <defs>
        <polygon id="path-1" points="0.295044961 0.919692308 9.7331845 0.919692308 9.7331845 10.3153346 0.295044961 10.3153346"></polygon>
        <polygon id="path-3" points="0.969029457 0.9272 43.4154419 0.9272 43.4154419 35.1904308 0.969029457 35.1904308"></polygon>
        <polygon id="path-5" points="2.04740465 0.441663462 48.5543116 0.441663462 48.5543116 51.6153846 2.04740465 51.6153846"></polygon>
    </defs>
    <g id="Page-1" stroke="none" stroke-width="1" fill="none" fill-rule="evenodd">
        <g id="00.-Home" transform="translate(-568.000000, -2967.000000)">
            <g id="Logo/brown" transform="translate(568.000000, 2965.000000)">
                <g id="Group">
                    <path d="M218.254326,39.4970308 C218.124713,41.4490308 217.792434,43.1758 217.250419,44.6773385 C216.713116,46.1812231 215.874171,47.3941846 214.745364,48.3209154 C213.611845,49.2453 212.044713,49.7098385 210.041612,49.7098385 C208.036155,49.7098385 206.466667,49.2453 205.33786,48.3209154 C204.204341,47.3941846 203.370109,46.1812231 202.828093,44.6773385 C202.290791,43.1758 201.953798,41.4490308 201.826543,39.4970308 C201.699287,37.5426846 201.633302,35.5648769 201.633302,33.5636077 C201.633302,31.5599923 201.699287,29.5962615 201.826543,27.6677231 C201.953798,25.7415308 202.290791,24.0241462 202.828093,22.5249538 C203.370109,21.0210692 204.204341,19.8081077 205.33786,18.8813769 C206.466667,17.9546462 208.036155,17.4924538 210.041612,17.4924538 C212.044713,17.4924538 213.611845,17.9546462 214.745364,18.8813769 C215.874171,19.8081077 216.713116,21.0210692 217.250419,22.5249538 C217.792434,24.0241462 218.124713,25.7415308 218.254326,27.6677231 C218.381581,29.5962615 218.447566,31.5599923 218.447566,33.5636077 C218.447566,35.5648769 218.381581,37.5426846 218.254326,39.4970308 M227.43324,26.9920308 C226.478822,24.9156846 225.156775,23.0997615 223.460031,21.5489538 C221.763287,19.9958 219.769612,18.7570308 217.483721,17.8303 C215.193116,16.9035692 212.711628,16.4413769 210.041612,16.4413769 C207.366884,16.4413769 204.885395,16.9035692 202.597147,17.8303 C200.311256,18.7570308 198.317581,19.9958 196.620837,21.5489538 C194.924093,23.0997615 193.59969,24.9156846 192.649984,26.9920308 C191.695566,29.0707231 191.221891,31.2596846 191.221891,33.5636077 C191.221891,35.9191462 191.695566,38.1315692 192.649984,40.2102615 C193.59969,42.2866077 194.924093,44.1025308 196.620837,45.6533385 C198.317581,47.2064923 200.311256,48.4335308 202.597147,49.3321077 C204.885395,50.2353769 207.366884,50.6858385 210.041612,50.6858385 C212.711628,50.6858385 215.193116,50.2353769 217.483721,49.3321077 C219.769612,48.4335308 221.763287,47.2064923 223.460031,45.6533385 C225.156775,44.1025308 226.478822,42.2866077 227.43324,40.2102615 C228.382946,38.1315692 228.858977,35.9191462 228.858977,33.5636077 C228.858977,31.2596846 228.382946,29.0707231 227.43324,26.9920308" id="Fill-1" fill="#CC9842"></path>
                    <g id="Group-5" transform="translate(134.325581, 1.426696)">
                        <mask id="mask-2" fill="white">
                            <use xlink:href="#path-1"></use>
                        </mask>
                        <g id="Clip-4"></g>
                        <path d="M5.01293643,10.3153346 C6.29727752,10.3153346 7.40723101,9.85314231 8.33572713,8.92406538 C9.26657984,7.99968077 9.7331845,6.89698846 9.7331845,5.61598846 C9.7331845,4.33733462 9.26657984,3.23464231 8.33572713,2.31025769 C7.40723101,1.38118077 6.29727752,0.918988462 5.01293643,0.918988462 C3.72859535,0.918988462 2.62099845,1.38118077 1.69014574,2.31025769 C0.759293023,3.23464231 0.295044961,4.33733462 0.295044961,5.61598846 C0.295044961,6.89698846 0.759293023,7.99968077 1.69014574,8.92406538 C2.62099845,9.85314231 3.72859535,10.3153346 5.01293643,10.3153346" id="Fill-3" fill="#CC9842" mask="url(#mask-2)"></path>
                    </g>
                    <polygon id="Fill-6" fill="#CC9842" points="144.01022 16.4296462 129.903678 16.4296462 129.903678 17.5041846 134.602716 17.5041846 134.60036 50.6928769 148.775243 50.6928769 148.775243 49.6183385 144.01022 49.6183385"></polygon>
                    <path d="M186.50942,27.3448923 C186.50942,23.9664308 185.571498,21.3058923 183.695653,19.3585846 C181.817451,17.4136231 179.185141,16.4423154 175.789296,16.4423154 C175.588986,16.4423154 175.409885,16.4563923 175.216645,16.4634308 L175.216645,16.4470077 C166.447777,16.4634308 163.544459,22.6502385 162.903467,24.3676231 L162.903467,16.4305846 L162.755002,16.4305846 L148.775715,16.4305846 L148.775715,17.5051231 L153.495963,17.5051231 L153.493606,50.6938154 L153.498319,50.6938154 L167.644924,50.6938154 L167.644924,49.6192769 L162.90818,49.6192769 L162.90818,32.5650846 C162.90818,30.2118923 163.167405,28.1637 163.681141,26.4205077 C164.194878,24.6820077 164.875932,23.2227 165.72666,22.0449308 C166.572676,20.8695077 167.562443,19.9850077 168.693606,19.3961231 C169.824769,18.8095846 171.007777,18.5139692 172.242629,18.5139692 C173.731994,18.5139692 174.915002,19.0137 175.789296,20.0108154 C176.663591,21.0102769 177.101916,22.5845462 177.101916,24.7336231 L177.101916,49.6192769 L172.320397,49.6192769 L172.320397,50.6938154 L191.222598,50.6938154 L191.222598,49.6192769 L186.50942,49.6192769 L186.50942,27.3448923 Z" id="Fill-8" fill="#CC9842"></path>
                    <path d="M125.194505,28.0344269 C125.194505,27.1123885 125.130878,25.9885808 125.003622,24.6583115 C124.874009,23.3256962 124.449823,22.0587731 123.731064,20.8551962 C123.009947,19.6539654 121.852862,18.6169654 120.259808,17.7465423 C118.664397,16.8761192 116.404428,16.4420808 113.472831,16.4420808 C112.90725,16.4420808 112.186133,16.5054269 111.311839,16.6344654 C110.437544,16.7611577 109.513761,17.0426962 108.538133,17.4767346 C107.560149,17.9131192 106.593947,18.5254654 105.644242,19.3208115 C104.694536,20.1138115 103.834381,21.2024269 103.06142,22.5843115 C102.649017,21.8663885 102.198909,21.1508115 101.711095,20.4352346 C101.223281,19.7173115 100.579932,19.0650808 99.7834047,18.4761962 C98.9868775,17.8873115 97.9829705,17.4016577 96.7740403,17.0168885 C95.5674667,16.6344654 94.0639628,16.4420808 92.2635287,16.4420808 C91.7592186,16.4420808 91.280831,16.4678885 90.8189395,16.5101192 C90.7553116,16.5148115 90.6916837,16.5241962 90.6280558,16.5312346 C90.2604279,16.5664269 89.9069395,16.6180423 89.5675907,16.6813885 C89.404986,16.7118885 89.2494512,16.7447346 89.0939163,16.7799269 C88.9737302,16.8104269 88.8535442,16.8362346 88.7357147,16.8667346 C84.0413891,18.0327731 82.0430016,21.2939269 81.5339783,22.28635 L81.5339783,16.43035 L67.4156527,16.43035 L67.4156527,17.5166192 L72.1241178,17.5166192 L72.1217612,49.6190423 L67.4156527,49.6190423 L67.4156527,50.6935808 L72.1217612,50.6935808 L86.0939783,50.6935808 L86.2895752,50.6935808 L86.2895752,49.6190423 L86.0939783,49.6190423 L81.5457612,49.6190423 L81.5457612,30.2609269 C81.5457612,28.9822731 81.5811101,27.8936577 81.6588775,26.9997731 C81.736645,26.1035423 81.8639008,25.3081962 82.0430016,24.6184269 C82.2244589,23.9263115 82.4695442,23.3116192 82.7782574,22.7766962 C83.0869705,22.2370808 83.4451721,21.7138885 83.8575752,21.2024269 C85.3987845,19.4099654 87.1992186,18.5137346 89.2565209,18.5137346 C90.4395287,18.5137346 91.5188465,18.9641962 92.4944744,19.8580808 C93.4724589,20.7519654 93.9602729,22.3262346 93.9602729,24.5785423 L93.9602729,49.6190423 L89.2494512,49.6190423 L89.2494512,50.6935808 L108.135157,50.6935808 L108.12573,49.6190423 L103.370133,49.6190423 L103.370133,26.3451962 C103.370133,24.9633115 103.641141,23.7738115 104.178443,22.7766962 C104.720459,21.7772346 105.375591,20.9701577 106.146195,20.3578115 C106.9168,19.7431192 107.713327,19.2832731 108.538133,18.9759269 C109.358226,18.6685808 110.051064,18.5137346 110.619002,18.5137346 C112.471281,18.5137346 113.793327,19.0885423 114.592211,20.24285 C115.388738,21.3924654 115.787002,23.0441577 115.787002,25.1932346 L115.787002,49.6190423 L115.735157,49.6190423 L111.236428,49.6190423 L111.026691,49.6190423 L111.026691,50.6935808 L111.236428,50.6935808 L115.735157,50.6935808 L129.902971,50.6935808 L129.902971,49.6190423 L125.194505,49.6190423 L125.194505,28.0344269 Z" id="Fill-10" fill="#CC9842"></path>
                    <g id="Group-14" transform="translate(259.224806, 15.503619)">
                        <mask id="mask-4" fill="white">
                            <use xlink:href="#path-3"></use>
                        </mask>
                        <g id="Clip-13"></g>
                        <path d="M38.6956651,34.1158923 L38.6980217,0.9272 L38.6909519,0.9272 L24.5467039,0.9272 L24.5467039,2.00173846 L29.2810915,2.00173846 L29.2810915,19.0559308 C29.2810915,21.4091231 29.0242233,23.4573154 28.5104868,25.1981615 C27.9967504,26.9366615 27.3156961,28.3959692 26.467324,29.5737385 C25.6165953,30.7515077 24.6268279,31.6336615 23.4980217,32.2225462 C22.3645023,32.8114308 21.1814946,33.1070462 19.9489984,33.1070462 C18.4572775,33.1070462 17.2766264,32.6073154 16.4023318,31.6102 C15.5280372,30.6107385 15.0897116,29.0364692 15.0897116,26.8873923 L15.0944248,0.9272 L0.969029457,0.9272 L0.969029457,2.00173846 L5.67985116,2.00173846 L5.67985116,24.2784692 C5.67985116,27.6545846 6.62013023,30.3151231 8.49833178,32.2624308 C10.3718202,34.2073923 13.0088434,35.1787 16.4023318,35.1787 C16.6002853,35.1787 16.7817426,35.1622769 16.9749829,35.1575846 L16.9749829,35.1716615 C25.7438512,35.1552385 28.647169,28.9707769 29.2858047,27.2510462 L29.2858047,35.1904308 L29.4342698,35.1904308 L43.4159132,35.1904308 L43.4159132,34.1158923 L38.6956651,34.1158923 Z" id="Fill-12" fill="#CC9842" mask="url(#mask-4)"></path>
                    </g>
                    <path d="M258.189792,18.1686154 C256.85125,17.0166538 255.10266,16.4418462 252.944025,16.4418462 C250.372986,16.4418462 248.303901,17.1433462 246.736769,18.5510385 C245.167281,19.9610769 243.767467,21.6385769 242.841327,23.5811923 L242.841327,16.4301154 L228.859684,16.4301154 L228.859684,17.5046538 L233.587002,17.5046538 L233.587002,49.6094231 L228.859684,49.6094231 L228.859684,50.6839615 L247.733606,50.6839615 L247.733606,49.6094231 L242.996862,49.6094231 L242.996862,29.341 C242.996862,27.7010385 243.237234,26.2323462 243.727405,24.9255385 C244.215219,23.6187308 244.792583,22.5066538 245.464211,21.5846154 C246.131126,20.6625769 246.849885,19.9610769 247.622847,19.4754231 C248.393451,18.9874231 249.0368,18.7434231 249.550536,18.7434231 C250.012428,18.7434231 250.361203,18.8325769 250.592149,19.0132308 C250.823095,19.1938846 250.988056,19.3956538 251.091746,19.6279231 C251.195436,19.8578462 251.270847,20.1769231 251.325048,20.5875 C251.325048,20.6391154 251.296769,20.8455769 251.247281,21.2021923 C251.195436,21.5588077 251.131808,21.9576538 251.056397,22.3916923 C250.976273,22.8257308 250.912645,23.2363077 250.863157,23.6187308 C250.808955,24.0035 250.783033,24.2733077 250.783033,24.4258077 C250.783033,25.7560769 251.270847,26.6663846 252.248831,27.1520385 C253.226816,27.6376923 254.306133,27.8816923 255.489141,27.8816923 C257.13404,27.8816923 258.331188,27.4476538 259.07587,26.5748846 C259.820552,25.7068077 260.19525,24.5032308 260.19525,22.9665 C260.19525,20.9206538 259.523622,19.3205769 258.189792,18.1686154" id="Fill-15" fill="#CC9842"></path>
                    <path d="M31.0367504,32.5777538 C31.4138047,32.5777538 31.7201612,32.8827538 31.7201612,33.2557923 C31.7201612,33.6288308 31.4138047,33.9361769 31.0367504,33.9361769 C30.6620527,33.9361769 30.3556961,33.6288308 30.3556961,33.2557923 C30.3556961,32.8827538 30.6620527,32.5777538 31.0367504,32.5777538 M31.0367504,35.2946 C32.1655566,35.2946 33.0846264,34.3819462 33.0846264,33.2557923 C33.0846264,32.3712923 32.5119752,31.6252154 31.7201612,31.3436769 L31.7201612,25.7832923 L33.7656806,25.7832923 C34.1427349,25.7832923 34.4490915,26.0859462 34.4490915,26.4636769 L34.4490915,35.9726385 C34.4490915,36.3480231 34.1427349,36.6530231 33.7656806,36.6530231 L29.6722853,36.6530231 C29.295231,36.6530231 28.991231,36.9580231 28.991231,37.3310615 C28.991231,37.7087923 29.295231,38.0114462 29.6722853,38.0114462 L33.7656806,38.0114462 C34.8968434,38.0114462 35.8135566,37.0987923 35.8135566,35.9726385 L35.8135566,26.4636769 C35.8135566,25.3375231 34.8968434,24.4225231 33.7656806,24.4225231 L31.0367504,24.4225231 C30.6596961,24.4225231 30.3556961,24.7275231 30.3556961,25.1029077 L30.3556961,31.3436769 C29.5615256,31.6252154 28.991231,32.3712923 28.991231,33.2557923 C28.991231,34.3819462 29.9079442,35.2946 31.0367504,35.2946" id="Fill-17" fill="#CC9842"></path>
                    <path d="M26.9426481,28.4994346 C27.3197023,28.4994346 27.6260589,28.8067808 27.6260589,29.1798192 C27.6260589,29.5528577 27.3197023,29.8578577 26.9426481,29.8578577 C26.5655938,29.8578577 26.2615938,29.5528577 26.2615938,29.1798192 C26.2615938,28.8067808 26.5655938,28.4994346 26.9426481,28.4994346 M24.2137178,38.0130885 L26.9426481,38.0130885 C27.3197023,38.0130885 27.6260589,37.7080885 27.6260589,37.3327038 L27.6260589,31.0919346 C28.4178729,30.8103962 28.990524,30.0643192 28.990524,29.1798192 C28.990524,28.0560115 28.0714543,27.1410115 26.9426481,27.1410115 C25.8138419,27.1410115 24.8971287,28.0560115 24.8971287,29.1798192 C24.8971287,30.0643192 25.4674233,30.8103962 26.2615938,31.0919346 L26.2615938,36.6546654 L24.2137178,36.6546654 C23.8390202,36.6546654 23.5326636,36.3496654 23.5326636,35.9742808 L23.5326636,26.4629731 C23.5326636,26.0875885 23.8390202,25.7825885 24.2137178,25.7825885 L28.3071132,25.7825885 C28.6841674,25.7825885 28.990524,25.4775885 28.990524,25.10455 C28.990524,24.7291654 28.6841674,24.4241654 28.3071132,24.4241654 L24.2137178,24.4241654 C23.0849116,24.4241654 22.1681984,25.3368192 22.1681984,26.4629731 L22.1681984,35.9742808 C22.1681984,37.0980885 23.0849116,38.0130885 24.2137178,38.0130885" id="Fill-19" fill="#CC9842"></path>
                    <path d="M20.7726264,23.7820231 C21.1850295,23.7820231 21.5196651,23.4465231 21.5196651,23.0382923 C21.5196651,22.6277154 21.1850295,22.2922154 20.7726264,22.2922154 C20.3602233,22.2922154 20.0279442,22.6277154 20.0279442,23.0382923 C20.0279442,23.4465231 20.3602233,23.7820231 20.7726264,23.7820231" id="Fill-21" fill="#CC9842"></path>
                    <path d="M37.2067721,23.7820231 C37.6191752,23.7820231 37.9514543,23.4465231 37.9514543,23.0382923 C37.9514543,22.6277154 37.6191752,22.2922154 37.2067721,22.2922154 C36.794369,22.2922154 36.4597333,22.6277154 36.4597333,23.0382923 C36.4597333,23.4465231 36.794369,23.7820231 37.2067721,23.7820231" id="Fill-23" fill="#CC9842"></path>
                    <path d="M20.7726264,40.14105 C21.1850295,40.14105 21.5196651,39.8078962 21.5196651,39.3996654 C21.5196651,38.9890885 21.1850295,38.6535885 20.7726264,38.6535885 C20.3602233,38.6535885 20.0279442,38.9890885 20.0279442,39.3996654 C20.0279442,39.8078962 20.3602233,40.14105 20.7726264,40.14105" id="Fill-25" fill="#CC9842"></path>
                    <path d="M37.2067721,40.14105 C37.6191752,40.14105 37.9514543,39.8078962 37.9514543,39.3996654 C37.9514543,38.9890885 37.6191752,38.6535885 37.2067721,38.6535885 C36.794369,38.6535885 36.4597333,38.9890885 36.4597333,39.3996654 C36.4597333,39.8078962 36.794369,40.14105 37.2067721,40.14105" id="Fill-27" fill="#CC9842"></path>
                    <path d="M12.6973023,45.6535731 C13.192186,45.1585346 13.9957829,45.1585346 14.4906667,45.6535731 C14.9855504,46.1462654 14.9855504,46.9439577 14.4906667,47.4389962 C13.9957829,47.9316885 13.192186,47.9316885 12.6973023,47.4389962 C12.2024186,46.9439577 12.2024186,46.1462654 12.6973023,45.6535731 M11.8512868,48.2812654 C12.6006822,49.0249962 13.7177054,49.1892269 14.6273488,48.7692654 C23.5541085,56.0212269 36.7580775,55.5144577 45.0768372,47.2348808 C52.9926202,39.3518038 53.8362791,27.0696885 47.6243101,18.2387654 L46.4742946,19.3860346 C52.0735504,27.5764577 51.2369612,38.8520731 43.948031,46.1087269 C36.2608372,53.7618808 24.0866977,54.2733423 15.7891473,47.6595346 C16.2628217,46.7398423 16.112,45.5808423 15.3366822,44.8113038 C14.3775504,43.8517269 12.8127752,43.8517269 11.8512868,44.8089577 C10.8897984,45.7661885 10.8897984,47.3240346 11.8512868,48.2812654" id="Fill-29" fill="#CC9842"></path>
                    <path d="M45.2820961,16.7825077 C44.7872124,17.2752 43.9836155,17.2752 43.4887318,16.7825077 C42.9914915,16.2898154 42.9914915,15.4897769 43.4887318,14.9970846 C43.9836155,14.5043923 44.7872124,14.5043923 45.2820961,14.9970846 C45.7769798,15.4897769 45.7769798,16.2898154 45.2820961,16.7825077 M43.361476,13.6597769 C34.4347163,6.40546923 21.2236775,6.91927692 12.9049178,15.2012 C4.98677829,23.0842769 4.14311938,35.3687385 10.3527318,44.1973154 L11.5027473,43.0523923 C5.90349147,34.8619692 6.74243721,23.5840077 14.0313674,16.3273538 C21.7185612,8.6742 33.8950574,8.16039231 42.1902512,14.7718538 C41.7165767,15.6938923 41.8673984,16.8552385 42.6427163,17.6247769 C43.6018481,18.5843538 45.1666233,18.5843538 46.1281116,17.6247769 C47.0896,16.6698923 47.0896,15.1120462 46.1281116,14.1548154 C45.3810729,13.4110846 44.2711194,13.2468538 43.361476,13.6597769" id="Fill-31" fill="#CC9842"></path>
                    <path d="M9.93797209,51.9703577 C9.44308837,52.46305 8.63949147,52.46305 8.14460775,51.9703577 C7.64972403,51.4753192 7.64972403,50.6776269 8.14460775,50.1825885 C8.63949147,49.6898962 9.44308837,49.6898962 9.93797209,50.1825885 C10.4352124,50.6776269 10.4352124,51.4753192 9.93797209,51.9703577 M10.7839876,49.3403192 C10.0510884,48.6083192 8.96234419,48.4393962 8.05977054,48.8265115 C-1.04373333,38.1186654 -0.532353488,22.0170115 9.60569302,11.9215115 C19.3431194,2.22720385 34.6397395,1.36851154 45.3669333,9.33839615 L46.5075225,8.20520385 C35.1464062,-0.377026923 18.8364527,0.484011538 8.47688682,10.7953577 C-2.26915969,21.4961654 -2.79467907,38.5644346 6.88147597,49.8987038 C6.36773953,50.8324731 6.50913488,52.0243192 7.29859225,52.8126269 C8.26008062,53.7698577 9.82485581,53.7698577 10.7839876,52.8126269 C11.7478326,51.8553962 11.7478326,50.29755 10.7839876,49.3403192" id="Fill-33" fill="#CC9842"></path>
                    <g id="Group-37" transform="translate(9.426357, 8.465158)">
                        <mask id="mask-6" fill="white">
                            <use xlink:href="#path-5"></use>
                        </mask>
                        <g id="Clip-36"></g>
                        <path d="M40.4079628,3.78551923 C39.9107225,4.27821154 39.1094822,4.27821154 38.6145984,3.78551923 C38.1173581,3.29282692 38.1173581,2.49278846 38.6145984,2.00009615 C39.1094822,1.50740385 39.9107225,1.50740385 40.4079628,2.00009615 C40.9028465,2.49278846 40.9028465,3.29282692 40.4079628,3.78551923 M41.2539783,1.15782692 C40.2924899,0.202942308 38.7277147,0.202942308 37.7685829,1.15782692 C36.8070946,2.11505769 36.8070946,3.67290385 37.7685829,4.62778846 C38.5014822,5.36213462 39.5925829,5.53105769 40.4928,5.14159615 C49.5963039,15.8541346 49.0872806,31.9534423 38.9468775,42.0512885 C29.2094512,51.74325 13.9104744,52.6042885 3.18328062,44.6344038 L2.04740465,45.7675962 C13.4061643,54.3498269 29.7161178,53.4887885 40.0733271,43.17275 C50.8217302,32.4766346 51.3519628,15.4036731 41.6734512,4.06940385 C42.184831,3.13798077 42.0434357,1.94613462 41.2539783,1.15782692" id="Fill-35" fill="#CC9842" mask="url(#mask-6)"></path>
                    </g>
                    <path d="M18.5333953,23.0373538 C18.5333953,22.3264692 18.8751008,21.7023923 19.3935504,21.2918154 C19.7753178,20.9938538 20.2513488,20.8061615 20.772155,20.8061615 L37.2070078,20.8061615 C37.5157209,20.8061615 37.8102946,20.8695077 38.0789457,20.9821231 C38.8825426,21.3223154 39.448124,22.1129692 39.448124,23.0373538 L39.448124,39.3994308 C39.448124,39.8498923 39.3090853,40.2722 39.0757829,40.6241231 C38.6751628,41.2270846 37.9870388,41.6282769 37.2070078,41.6282769 L20.772155,41.6282769 C20.4634419,41.6282769 20.1688682,41.5649308 19.9025736,41.4546615 C19.0966202,41.1144692 18.5333953,40.3191231 18.5333953,39.3994308 L18.5333953,23.0373538 Z M12.5570853,37.1658923 L12.5570853,37.9096231 L12.5570853,37.9119692 L12.5570853,37.9143154 L12.5570853,38.6533538 L17.0369612,38.6533538 L17.0369612,39.3994308 C17.0369612,40.0375846 17.2019225,40.6428923 17.4894264,41.1707769 C18.0055194,42.1186231 18.9269457,42.8177769 20.0227597,43.0406615 C20.2631318,43.0899308 20.5152868,43.1180846 20.772155,43.1180846 L21.5215504,43.1180846 L21.5215504,47.5781231 L23.0132713,47.5781231 L23.0132713,43.1180846 L26.0014264,43.1180846 L26.0014264,47.5781231 L27.4955039,47.5781231 L27.4955039,43.1180846 L30.4836589,43.1180846 L30.4836589,47.5781231 L31.9777364,47.5781231 L31.9777364,43.1180846 L34.9658915,43.1180846 L34.9658915,47.5781231 L36.4576124,47.5781231 L36.4576124,43.1180846 L37.2070078,43.1180846 C37.979969,43.1180846 38.6987287,42.8811231 39.2949457,42.4799308 C40.2870698,41.8112769 40.9422016,40.6804308 40.9422016,39.3994308 L40.9422016,38.6533538 L45.4220775,38.6533538 L45.4220775,37.9143154 L45.4220775,37.9119692 L45.4220775,37.9096231 L45.4220775,37.1658923 L40.9422016,37.1658923 L40.9422016,34.1933154 L45.4220775,34.1933154 L45.4220775,33.4495846 L45.4220775,33.4472385 L45.4220775,32.7058538 L40.9422016,32.7058538 L40.9422016,29.7309308 L45.4220775,29.7309308 L45.4220775,28.9895462 L45.4220775,28.9872 L45.4220775,28.9848538 L45.4220775,28.2434692 L40.9422016,28.2434692 L40.9422016,25.2685462 L45.4220775,25.2685462 L45.4220775,24.5271615 L45.4220775,24.5248154 L45.4220775,24.5224692 L45.4220775,23.7810846 L40.9422016,23.7810846 L40.9422016,23.0373538 C40.9422016,21.1158538 39.4693333,19.5298538 37.5887752,19.3398154 C37.4615194,19.3257385 37.3366202,19.3187 37.2070078,19.3187 L36.4576124,19.3187 L36.4576124,14.8586615 L34.9658915,14.8586615 L34.9658915,19.3187 L31.9777364,19.3187 L31.9777364,14.8586615 L30.4836589,14.8586615 L30.4836589,19.3187 L27.4955039,19.3187 L27.4955039,14.8586615 L26.0014264,14.8586615 L26.0014264,19.3187 L23.0132713,19.3187 L23.0132713,14.8586615 L21.5215504,14.8586615 L21.5215504,19.3187 L20.772155,19.3187 C18.7124961,19.3187 17.0369612,20.9868154 17.0369612,23.0373538 L17.0369612,23.7810846 L12.5570853,23.7810846 L12.5570853,24.5224692 L12.5570853,24.5248154 L12.5570853,24.5271615 L12.5570853,25.2685462 L17.0369612,25.2685462 L17.0369612,28.2434692 L12.5570853,28.2434692 L12.5570853,28.9848538 L12.5570853,28.9872 L12.5570853,28.9895462 L12.5570853,29.7309308 L17.0369612,29.7309308 L17.0369612,32.7058538 L12.5570853,32.7058538 L12.5570853,33.4472385 L12.5570853,33.4495846 L12.5570853,34.1933154 L17.0369612,34.1933154 L17.0369612,37.1658923 L12.5570853,37.1658923 Z" id="Fill-38" fill="#CC9842"></path>
                </g>
            </g>
        </g>
    </g>
</svg>