<?xml version="1.0" encoding="UTF-8"?>
<svg width="129px" height="25px" viewBox="0 0 129 25" version="1.1" xmlns="http://www.w3.org/2000/svg" xmlns:xlink="http://www.w3.org/1999/xlink">
    <!-- Generator: Sketch 50.2 (55047) - http://www.bohemiancoding.com/sketch -->
    <title>Logo/normal@2x</title>
    <desc>Created with Sketch.</desc>
    <defs>
        <polygon id="path-1" points="0.1252 0.392 4.1302 0.392 4.1302 4.3969 0.1252 4.3969"></polygon>
        <polygon id="path-3" points="0.4112 0.3954 18.423 0.3954 18.423 14.9994 0.4112 14.9994"></polygon>
        <polygon id="path-5" points="0.8688 0.1877 20.6036388 0.1877 20.6036388 22 0.8688 22"></polygon>
    </defs>
    <g id="Page-1" stroke="none" stroke-width="1" fill="none" fill-rule="evenodd">
        <g id="00.-Home-Copy" transform="translate(-150.000000, -40.000000)">
            <g id="Logo/normal" transform="translate(150.000000, 39.000000)">
                <g id="Logo">
                    <path d="M92.6145,16.8341 C92.5595,17.6661 92.4185,18.4021 92.1885,19.0431 C91.9605,19.6841 91.6045,20.2011 91.1255,20.5961 C90.6445,20.9901 89.9795,21.1881 89.1295,21.1881 C88.2785,21.1881 87.6125,20.9901 87.1335,20.5961 C86.6525,20.2011 86.2985,19.6841 86.0685,19.0431 C85.8405,18.4021 85.6975,17.6661 85.6435,16.8341 C85.5895,16.0021 85.5615,15.1591 85.5615,14.3061 C85.5615,13.4521 85.5895,12.6141 85.6435,11.7931 C85.6975,10.9721 85.8405,10.2401 86.0685,9.6011 C86.2985,8.9601 86.6525,8.4421 87.1335,8.0481 C87.6125,7.6531 88.2785,7.4561 89.1295,7.4561 C89.9795,7.4561 90.6445,7.6531 91.1255,8.0481 C91.6045,8.4421 91.9605,8.9601 92.1885,9.6011 C92.4185,10.2401 92.5595,10.9721 92.6145,11.7931 C92.6685,12.6141 92.6965,13.4521 92.6965,14.3061 C92.6965,15.1591 92.6685,16.0021 92.6145,16.8341 M96.5095,11.5051 C96.1045,10.6191 95.5435,9.8461 94.8235,9.1841 C94.1035,8.5221 93.2575,7.9951 92.2875,7.6001 C91.3155,7.2051 90.2625,7.0081 89.1295,7.0081 C87.9945,7.0081 86.9415,7.2051 85.9705,7.6001 C85.0005,7.9951 84.1545,8.5221 83.4345,9.1841 C82.7145,9.8461 82.1525,10.6191 81.7495,11.5051 C81.3445,12.3911 81.1435,13.3241 81.1435,14.3061 C81.1435,15.3091 81.3445,16.2531 81.7495,17.1391 C82.1525,18.0241 82.7145,18.7981 83.4345,19.4591 C84.1545,20.1211 85.0005,20.6441 85.9705,21.0271 C86.9415,21.4111 87.9945,21.6041 89.1295,21.6041 C90.2625,21.6041 91.3155,21.4111 92.2875,21.0271 C93.2575,20.6441 94.1035,20.1211 94.8235,19.4591 C95.5435,18.7981 96.1045,18.0241 96.5095,17.1391 C96.9125,16.2531 97.1145,15.3091 97.1145,14.3061 C97.1145,13.3241 96.9125,12.3911 96.5095,11.5051" id="Fill-1" fill="#194649"></path>
                    <g id="Group-5" transform="translate(57.000000, 0.608100)">
                        <mask id="mask-2" fill="white">
                            <use xlink:href="#path-1"></use>
                        </mask>
                        <g id="Clip-4"></g>
                        <path d="M2.1272,4.3969 C2.6722,4.3969 3.1432,4.1989 3.5372,3.8039 C3.9322,3.4099 4.1302,2.9399 4.1302,2.3939 C4.1302,1.8489 3.9322,1.3789 3.5372,0.9839 C3.1432,0.5889 2.6722,0.3919 2.1272,0.3919 C1.5822,0.3919 1.1122,0.5889 0.7172,0.9839 C0.3222,1.3789 0.1252,1.8489 0.1252,2.3939 C0.1252,2.9399 0.3222,3.4099 0.7172,3.8039 C1.1122,4.1989 1.5822,4.3969 2.1272,4.3969" id="Fill-3" fill="#194649" mask="url(#mask-2)"></path>
                    </g>
                    <polygon id="Fill-6" fill="#194649" points="61.1096 7.003 55.1236 7.003 55.1236 7.461 57.1176 7.461 57.1166 21.607 63.1316 21.607 63.1316 21.149 61.1096 21.149"></polygon>
                    <path d="M79.1438,11.6544 C79.1438,10.2154 78.7458,9.0804 77.9498,8.2514 C77.1528,7.4224 76.0358,7.0084 74.5948,7.0084 C74.5098,7.0084 74.4338,7.0144 74.3518,7.0164 L74.3518,7.0104 C70.6308,7.0174 69.3988,9.6544 69.1268,10.3864 L69.1268,7.0034 L69.0638,7.0034 L63.1318,7.0034 L63.1318,7.4614 L65.1348,7.4614 L65.1338,21.6074 L65.1358,21.6074 L71.1388,21.6074 L71.1388,21.1494 L69.1288,21.1494 L69.1288,13.8804 C69.1288,12.8774 69.2388,12.0044 69.4568,11.2614 C69.6748,10.5204 69.9638,9.8984 70.3248,9.3964 C70.6838,8.8944 71.1038,8.5184 71.5838,8.2674 C72.0638,8.0164 72.5658,7.8904 73.0898,7.8904 C73.7218,7.8904 74.2238,8.1034 74.5948,8.5294 C74.9658,8.9554 75.1518,9.6264 75.1518,10.5424 L75.1518,21.1494 L73.1228,21.1494 L73.1228,21.6074 L81.1438,21.6074 L81.1438,21.1494 L79.1438,21.1494 L79.1438,11.6544 Z" id="Fill-8" fill="#194649"></path>
                    <path d="M53.1253,11.9493 C53.1253,11.5563 53.0983,11.0773 53.0443,10.5093 C52.9893,9.9423 52.8093,9.4023 52.5043,8.8893 C52.1983,8.3773 51.7073,7.9343 51.0313,7.5633 C50.3543,7.1933 49.3953,7.0083 48.1513,7.0083 C47.9113,7.0083 47.6053,7.0353 47.2343,7.0893 C46.8633,7.1433 46.4713,7.2633 46.0573,7.4493 C45.6423,7.6353 45.2323,7.8963 44.8293,8.2343 C44.4263,8.5733 44.0613,9.0363 43.7333,9.6263 C43.5583,9.3203 43.3673,9.0143 43.1603,8.7093 C42.9533,8.4043 42.6803,8.1263 42.3423,7.8753 C42.0043,7.6243 41.5783,7.4163 41.0653,7.2533 C40.5533,7.0893 39.9153,7.0083 39.1513,7.0083 C38.9373,7.0083 38.7343,7.0183 38.5383,7.0363 C38.5113,7.0393 38.4843,7.0433 38.4573,7.0463 C38.3013,7.0613 38.1513,7.0833 38.0073,7.1103 C37.9383,7.1233 37.8723,7.1373 37.8063,7.1523 C37.7553,7.1643 37.7043,7.1763 37.6543,7.1893 C35.6623,7.6853 34.8143,9.0763 34.5983,9.4993 L34.5983,7.0033 L28.6073,7.0033 L28.6073,7.4663 L30.6053,7.4663 L30.6043,21.1493 L28.6073,21.1493 L28.6073,21.6073 L30.6043,21.6073 L36.5333,21.6073 L36.6163,21.6073 L36.6163,21.1493 L36.5333,21.1493 L34.6033,21.1493 L34.6033,12.8983 C34.6033,12.3533 34.6183,11.8893 34.6513,11.5083 C34.6843,11.1263 34.7383,10.7873 34.8143,10.4933 C34.8913,10.1983 34.9953,9.9363 35.1263,9.7073 C35.2573,9.4783 35.4093,9.2553 35.5843,9.0363 C36.2383,8.2733 37.0023,7.8903 37.8753,7.8903 C38.3773,7.8903 38.8353,8.0823 39.2493,8.4643 C39.6643,8.8453 39.8713,9.5163 39.8713,10.4763 L39.8713,21.1493 L37.8723,21.1493 L37.8723,21.6073 L45.8863,21.6073 L45.8823,21.1493 L43.8643,21.1493 L43.8643,11.2293 C43.8643,10.6403 43.9793,10.1333 44.2073,9.7073 C44.4373,9.2823 44.7153,8.9383 45.0423,8.6773 C45.3693,8.4153 45.7073,8.2193 46.0573,8.0873 C46.4053,7.9563 46.6993,7.8903 46.9403,7.8903 C47.7263,7.8903 48.2873,8.1363 48.6263,8.6283 C48.9643,9.1183 49.1333,9.8223 49.1333,10.7383 L49.1333,21.1493 L49.1113,21.1493 L47.2023,21.1493 L47.1133,21.1493 L47.1133,21.6073 L47.2023,21.6073 L49.1113,21.6073 L55.1233,21.6073 L55.1233,21.1493 L53.1253,21.1493 L53.1253,11.9493 Z" id="Fill-10" fill="#194649"></path>
                    <g id="Group-14" transform="translate(110.000000, 6.608100)">
                        <mask id="mask-4" fill="white">
                            <use xlink:href="#path-3"></use>
                        </mask>
                        <g id="Clip-13"></g>
                        <path d="M16.4202,14.5414 L16.4212,0.3954 L16.4182,0.3954 L10.4162,0.3954 L10.4162,0.8534 L12.4252,0.8534 L12.4252,8.1224 C12.4252,9.1254 12.3162,9.9984 12.0982,10.7404 C11.8802,11.4814 11.5912,12.1034 11.2312,12.6054 C10.8702,13.1064 10.4502,13.4834 9.9712,13.7344 C9.4902,13.9844 8.9882,14.1104 8.4652,14.1104 C7.8322,14.1104 7.3312,13.8974 6.9602,13.4734 C6.5892,13.0474 6.4032,12.3764 6.4032,11.4604 L6.4052,0.3954 L0.4112,0.3954 L0.4112,0.8534 L2.4102,0.8534 L2.4102,10.3474 C2.4102,11.7874 2.8092,12.9214 3.6062,13.7514 C4.4012,14.5804 5.5202,14.9944 6.9602,14.9944 C7.0442,14.9944 7.1212,14.9874 7.2032,14.9844 L7.2032,14.9914 C10.9242,14.9844 12.1562,12.3484 12.4272,11.6154 L12.4272,14.9994 L12.4902,14.9994 L18.4232,14.9994 L18.4232,14.5414 L16.4202,14.5414 Z" id="Fill-12" fill="#194649" mask="url(#mask-4)"></path>
                    </g>
                    <path d="M109.5608,7.7442 C108.9928,7.2532 108.2508,7.0082 107.3348,7.0082 C106.2438,7.0082 105.3658,7.3072 104.7008,7.9072 C104.0348,8.5082 103.4408,9.2222 103.0478,10.0512 L103.0478,7.0032 L97.1148,7.0032 L97.1148,7.4612 L99.1208,7.4612 L99.1208,21.1452 L97.1148,21.1452 L97.1148,21.6032 L105.1238,21.6032 L105.1238,21.1452 L103.1138,21.1452 L103.1138,12.5062 C103.1138,11.8072 103.2158,11.1802 103.4238,10.6242 C103.6308,10.0672 103.8758,9.5932 104.1608,9.2002 C104.4438,8.8072 104.7488,8.5082 105.0768,8.3002 C105.4038,8.0932 105.6768,7.9892 105.8948,7.9892 C106.0908,7.9892 106.2388,8.0272 106.3368,8.1032 C106.4348,8.1812 106.5048,8.2672 106.5488,8.3652 C106.5928,8.4642 106.6248,8.6002 106.6478,8.7742 C106.6478,8.7972 106.6358,8.8842 106.6148,9.0362 C106.5928,9.1892 106.5658,9.3582 106.5338,9.5442 C106.4998,9.7292 106.4728,9.9042 106.4518,10.0672 C106.4288,10.2312 106.4178,10.3462 106.4178,10.4112 C106.4178,10.9782 106.6248,11.3652 107.0398,11.5732 C107.4548,11.7802 107.9128,11.8842 108.4148,11.8842 C109.1128,11.8842 109.6208,11.6982 109.9368,11.3272 C110.2528,10.9572 110.4118,10.4432 110.4118,9.7892 C110.4118,8.9172 110.1268,8.2342 109.5608,7.7442" id="Fill-15" fill="#194649"></path>
                    <path d="M13.1702,13.8848 C13.3302,13.8848 13.4602,14.0148 13.4602,14.1748 C13.4602,14.3338 13.3302,14.4638 13.1702,14.4638 C13.0112,14.4638 12.8812,14.3338 12.8812,14.1748 C12.8812,14.0148 13.0112,13.8848 13.1702,13.8848 M13.1702,15.0428 C13.6492,15.0428 14.0392,14.6538 14.0392,14.1748 C14.0392,13.7978 13.7962,13.4798 13.4602,13.3598 L13.4602,10.9888 L14.3282,10.9888 C14.4882,10.9888 14.6182,11.1188 14.6182,11.2798 L14.6182,15.3328 C14.6182,15.4918 14.4882,15.6218 14.3282,15.6218 L12.5912,15.6218 C12.4312,15.6218 12.3022,15.7518 12.3022,15.9118 C12.3022,16.0728 12.4312,16.2018 12.5912,16.2018 L14.3282,16.2018 C14.8082,16.2018 15.1972,15.8118 15.1972,15.3328 L15.1972,11.2798 C15.1972,10.7998 14.8082,10.4098 14.3282,10.4098 L13.1702,10.4098 C13.0102,10.4098 12.8812,10.5398 12.8812,10.6998 L12.8812,13.3598 C12.5442,13.4798 12.3022,13.7978 12.3022,14.1748 C12.3022,14.6538 12.6912,15.0428 13.1702,15.0428" id="Fill-17" fill="#CC9842"></path>
                    <path d="M11.4329,12.1475 C11.5929,12.1475 11.7229,12.2775 11.7229,12.4375 C11.7229,12.5965 11.5929,12.7265 11.4329,12.7265 C11.2729,12.7265 11.1439,12.5965 11.1439,12.4375 C11.1439,12.2775 11.2729,12.1475 11.4329,12.1475 M10.2749,16.2025 L11.4329,16.2025 C11.5929,16.2025 11.7229,16.0725 11.7229,15.9125 L11.7229,13.2525 C12.0589,13.1325 12.3019,12.8145 12.3019,12.4375 C12.3019,11.9585 11.9119,11.5685 11.4329,11.5685 C10.9539,11.5685 10.5649,11.9585 10.5649,12.4375 C10.5649,12.8145 10.8069,13.1325 11.1439,13.2525 L11.1439,15.6225 L10.2749,15.6225 C10.1159,15.6225 9.9859,15.4925 9.9859,15.3335 L9.9859,11.2795 C9.9859,11.1195 10.1159,10.9895 10.2749,10.9895 L12.0119,10.9895 C12.1719,10.9895 12.3019,10.8595 12.3019,10.7005 C12.3019,10.5405 12.1719,10.4105 12.0119,10.4105 L10.2749,10.4105 C9.7959,10.4105 9.4069,10.7995 9.4069,11.2795 L9.4069,15.3335 C9.4069,15.8115 9.7959,16.2025 10.2749,16.2025" id="Fill-19" fill="#CC9842"></path>
                    <path d="M8.8147,10.1358 C8.9897,10.1358 9.1317,9.9938 9.1317,9.8198 C9.1317,9.6448 8.9897,9.5018 8.8147,9.5018 C8.6397,9.5018 8.4987,9.6448 8.4987,9.8198 C8.4987,9.9938 8.6397,10.1358 8.8147,10.1358" id="Fill-21" fill="#CC9842"></path>
                    <path d="M15.7884,10.1358 C15.9634,10.1358 16.1044,9.9938 16.1044,9.8198 C16.1044,9.6448 15.9634,9.5018 15.7884,9.5018 C15.6134,9.5018 15.4714,9.6448 15.4714,9.8198 C15.4714,9.9938 15.6134,10.1358 15.7884,10.1358" id="Fill-23" fill="#CC9842"></path>
                    <path d="M8.8147,17.1095 C8.9897,17.1095 9.1317,16.9675 9.1317,16.7935 C9.1317,16.6175 8.9897,16.4755 8.8147,16.4755 C8.6397,16.4755 8.4987,16.6175 8.4987,16.7935 C8.4987,16.9675 8.6397,17.1095 8.8147,17.1095" id="Fill-25" fill="#CC9842"></path>
                    <path d="M15.7884,17.1095 C15.9634,17.1095 16.1044,16.9675 16.1044,16.7935 C16.1044,16.6175 15.9634,16.4755 15.7884,16.4755 C15.6134,16.4755 15.4714,16.6175 15.4714,16.7935 C15.4714,16.9675 15.6134,17.1095 15.7884,17.1095" id="Fill-27" fill="#CC9842"></path>
                    <path d="M5.388,19.4581 C5.598,19.2481 5.939,19.2481 6.149,19.4581 C6.359,19.6681 6.359,20.0091 6.149,20.2191 C5.939,20.4301 5.598,20.4301 5.388,20.2191 C5.178,20.0091 5.178,19.6681 5.388,19.4581 M5.029,20.5781 C5.347,20.8961 5.821,20.9661 6.207,20.7871 C9.995,23.8781 15.598,23.6621 19.128,20.1321 C22.487,16.7731 22.845,11.5371 20.209,7.7741 L19.721,8.2631 C22.097,11.7541 21.742,16.5601 18.649,19.6531 C15.387,22.9151 10.221,23.1331 6.7,20.3141 C6.901,19.9221 6.837,19.4281 6.508,19.0991 C6.101,18.6911 5.437,18.6911 5.029,19.0991 C4.621,19.5071 4.621,20.1711 5.029,20.5781" id="Fill-29" fill="#CC9842"></path>
                    <path d="M19.2151,7.1534 C19.0051,7.3634 18.6641,7.3634 18.4541,7.1534 C18.2431,6.9434 18.2431,6.6024 18.4541,6.3924 C18.6641,6.1824 19.0051,6.1824 19.2151,6.3924 C19.4251,6.6024 19.4251,6.9434 19.2151,7.1534 M18.4001,5.8224 C14.6121,2.7304 9.0061,2.9494 5.4761,6.4794 C2.1161,9.8384 1.7581,15.0744 4.3931,18.8384 L4.8811,18.3504 C2.5051,14.8594 2.8611,10.0524 5.9541,6.9594 C9.2161,3.6974 14.3831,3.4784 17.9031,6.2964 C17.7021,6.6894 17.7661,7.1834 18.0951,7.5124 C18.5021,7.9214 19.1661,7.9214 19.5741,7.5124 C19.9821,7.1044 19.9821,6.4414 19.5741,6.0334 C19.2571,5.7164 18.7861,5.6464 18.4001,5.8224" id="Fill-31" fill="#CC9842"></path>
                    <path d="M4.2171,22.1505 C4.0071,22.3615 3.6661,22.3605 3.4561,22.1505 C3.2461,21.9405 3.2461,21.5995 3.4561,21.3895 C3.6661,21.1795 4.0071,21.1795 4.2171,21.3895 C4.4281,21.5995 4.4281,21.9405 4.2171,22.1505 M4.5761,21.0305 C4.2651,20.7175 3.8031,20.6455 3.4201,20.8115 C-0.4429,16.2475 -0.2259,9.3845 4.0761,5.0815 C8.2081,0.9495 14.6991,0.5835 19.2511,3.9795 L19.7351,3.4975 C14.9141,-0.1615 7.9931,0.2055 3.5971,4.6015 C-0.9629,9.1625 -1.1859,16.4375 2.9201,21.2685 C2.7021,21.6665 2.7621,22.1745 3.0971,22.5095 C3.5051,22.9185 4.1691,22.9185 4.5761,22.5095 C4.9851,22.1025 4.9851,21.4385 4.5761,21.0305" id="Fill-33" fill="#CC9842"></path>
                    <g id="Group-37" transform="translate(4.000000, 3.608100)">
                        <mask id="mask-6" fill="white">
                            <use xlink:href="#path-5"></use>
                        </mask>
                        <g id="Clip-36"></g>
                        <path d="M17.1468,1.6137 C16.9358,1.8237 16.5958,1.8237 16.3858,1.6137 C16.1748,1.4037 16.1748,1.0627 16.3858,0.8527 C16.5958,0.6427 16.9358,0.6427 17.1468,0.8527 C17.3568,1.0627 17.3568,1.4037 17.1468,1.6137 M17.5058,0.4937 C17.0978,0.0857 16.4338,0.0857 16.0268,0.4937 C15.6188,0.9017 15.6188,1.5647 16.0268,1.9727 C16.3378,2.2857 16.8008,2.3577 17.1828,2.1917 C21.0458,6.7577 20.8298,13.6197 16.5268,17.9227 C12.3948,22.0537 5.9028,22.4217 1.3508,19.0247 L0.8688,19.5077 C5.6888,23.1647 12.6098,22.7987 17.0048,18.4017 C21.5658,13.8417 21.7908,6.5657 17.6838,1.7347 C17.9008,1.3377 17.8408,0.8297 17.5058,0.4937" id="Fill-35" fill="#CC9842" mask="url(#mask-6)"></path>
                    </g>
                    <path d="M7.8645,9.8194 C7.8645,9.5164 8.0095,9.2504 8.2295,9.0754 C8.3915,8.9474 8.5935,8.8684 8.8145,8.8684 L15.7885,8.8684 C15.9195,8.8684 16.0445,8.8944 16.1585,8.9434 C16.4995,9.0884 16.7395,9.4254 16.7395,9.8194 L16.7395,16.7934 C16.7395,16.9854 16.6805,17.1654 16.5815,17.3144 C16.4115,17.5724 16.1195,17.7434 15.7885,17.7434 L8.8145,17.7434 C8.6835,17.7434 8.5585,17.7164 8.4455,17.6694 C8.1035,17.5244 7.8645,17.1854 7.8645,16.7934 L7.8645,9.8194 Z M5.3285,15.8414 L5.3285,16.1574 L5.3285,16.1584 L5.3285,16.1594 L5.3285,16.4754 L7.2295,16.4754 L7.2295,16.7934 C7.2295,17.0654 7.2995,17.3234 7.4215,17.5484 C7.6405,17.9514 8.0315,18.2504 8.4965,18.3454 C8.5985,18.3664 8.7055,18.3784 8.8145,18.3784 L9.1325,18.3784 L9.1325,20.2794 L9.7655,20.2794 L9.7655,18.3784 L11.0335,18.3784 L11.0335,20.2794 L11.6675,20.2794 L11.6675,18.3784 L12.9355,18.3784 L12.9355,20.2794 L13.5695,20.2794 L13.5695,18.3784 L14.8375,18.3784 L14.8375,20.2794 L15.4705,20.2794 L15.4705,18.3784 L15.7885,18.3784 C16.1165,18.3784 16.4215,18.2774 16.6745,18.1064 C17.0955,17.8214 17.3735,17.3394 17.3735,16.7934 L17.3735,16.4754 L19.2745,16.4754 L19.2745,16.1594 L19.2745,16.1584 L19.2745,16.1574 L19.2745,15.8414 L17.3735,15.8414 L17.3735,14.5744 L19.2745,14.5744 L19.2745,14.2574 L19.2745,14.2564 L19.2745,13.9394 L17.3735,13.9394 L17.3735,12.6724 L19.2745,12.6724 L19.2745,12.3564 L19.2745,12.3554 L19.2745,12.3544 L19.2745,12.0384 L17.3735,12.0384 L17.3735,10.7704 L19.2745,10.7704 L19.2745,10.4544 L19.2745,10.4534 L19.2745,10.4524 L19.2745,10.1354 L17.3735,10.1354 L17.3735,9.8194 C17.3735,9.0004 16.7485,8.3244 15.9505,8.2424 C15.8965,8.2374 15.8435,8.2344 15.7885,8.2344 L15.4705,8.2344 L15.4705,6.3324 L14.8375,6.3324 L14.8375,8.2344 L13.5695,8.2344 L13.5695,6.3324 L12.9355,6.3324 L12.9355,8.2344 L11.6675,8.2344 L11.6675,6.3324 L11.0335,6.3324 L11.0335,8.2344 L9.7655,8.2344 L9.7655,6.3324 L9.1325,6.3324 L9.1325,8.2344 L8.8145,8.2344 C7.9405,8.2344 7.2295,8.9454 7.2295,9.8194 L7.2295,10.1354 L5.3285,10.1354 L5.3285,10.4524 L5.3285,10.4534 L5.3285,10.4544 L5.3285,10.7704 L7.2295,10.7704 L7.2295,12.0384 L5.3285,12.0384 L5.3285,12.3534 L5.3285,12.3544 L5.3285,12.3564 L5.3285,12.6724 L7.2295,12.6724 L7.2295,13.9394 L5.3285,13.9394 L5.3285,14.2564 L5.3285,14.2574 L5.3285,14.5744 L7.2295,14.5744 L7.2295,15.8414 L5.3285,15.8414 Z" id="Fill-38" fill="#CC9842"></path>
                </g>
            </g>
        </g>
    </g>
</svg>